<mxfile host="app.diagrams.net" modified="2022-05-31T01:32:54.733Z" agent="5.0 (Macintosh; Intel Mac OS X 10_15_7) AppleWebKit/605.1.15 (KHTML, like Gecko) Version/13.1.3 Safari/605.1.15" etag="IB32pSvVG3gOy1grwSGY" version="18.1.3" type="github">
  <diagram id="QJjx0-fPxzvcmYibJWj1" name="Page-1">
    <mxGraphModel dx="1226" dy="1686" grid="1" gridSize="10" guides="1" tooltips="1" connect="1" arrows="1" fold="1" page="1" pageScale="1" pageWidth="827" pageHeight="583" math="0" shadow="0">
      <root>
        <mxCell id="0" />
        <mxCell id="1" parent="0" />
        <mxCell id="4f-DMQIj-ya-iA7LCkDa-7" value="" style="shape=cube;whiteSpace=wrap;html=1;boundedLbl=1;backgroundOutline=1;darkOpacity=0.05;darkOpacity2=0.1;size=40;direction=east;flipH=1;fillColor=#ffe6cc;strokeColor=#d79b00;" parent="1" vertex="1">
          <mxGeometry x="940" y="185.38" width="90" height="133.75" as="geometry" />
        </mxCell>
        <mxCell id="4f-DMQIj-ya-iA7LCkDa-8" value="" style="shape=cube;whiteSpace=wrap;html=1;boundedLbl=1;backgroundOutline=1;darkOpacity=0.05;darkOpacity2=0.1;size=40;direction=east;flipH=1;fillColor=#dae8fc;strokeColor=#6c8ebf;" parent="1" vertex="1">
          <mxGeometry x="990" y="185.38" width="50" height="133.75" as="geometry" />
        </mxCell>
        <mxCell id="4f-DMQIj-ya-iA7LCkDa-11" value="" style="shape=cube;whiteSpace=wrap;html=1;boundedLbl=1;backgroundOutline=1;darkOpacity=0.05;darkOpacity2=0.1;size=20;direction=east;flipH=1;fillColor=#ffe6cc;strokeColor=#d79b00;" parent="1" vertex="1">
          <mxGeometry x="830" y="246.87" width="90" height="73.13" as="geometry" />
        </mxCell>
        <mxCell id="4f-DMQIj-ya-iA7LCkDa-12" value="" style="shape=cube;whiteSpace=wrap;html=1;boundedLbl=1;backgroundOutline=1;darkOpacity=0.05;darkOpacity2=0.1;size=20;direction=east;flipH=1;fillColor=#dae8fc;strokeColor=#6c8ebf;" parent="1" vertex="1">
          <mxGeometry x="898" y="246" width="40" height="74" as="geometry" />
        </mxCell>
        <mxCell id="4f-DMQIj-ya-iA7LCkDa-16" value="" style="shape=cube;whiteSpace=wrap;html=1;boundedLbl=1;backgroundOutline=1;darkOpacity=0.05;darkOpacity2=0.1;size=10;direction=east;flipH=1;fillColor=#ffe6cc;strokeColor=#d79b00;" parent="1" vertex="1">
          <mxGeometry x="720" y="278.35" width="90" height="40" as="geometry" />
        </mxCell>
        <mxCell id="4f-DMQIj-ya-iA7LCkDa-23" value="" style="shape=cube;whiteSpace=wrap;html=1;boundedLbl=1;backgroundOutline=1;darkOpacity=0.05;darkOpacity2=0.1;size=7;direction=east;flipH=1;fillColor=#ffe6cc;strokeColor=#d79b00;" parent="1" vertex="1">
          <mxGeometry x="1241" y="318.35" width="32.47" height="21.65" as="geometry" />
        </mxCell>
        <mxCell id="4f-DMQIj-ya-iA7LCkDa-24" value="" style="shape=cube;whiteSpace=wrap;html=1;boundedLbl=1;backgroundOutline=1;darkOpacity=0.05;darkOpacity2=0.1;size=7;direction=east;flipH=1;fillColor=#dae8fc;strokeColor=#6c8ebf;" parent="1" vertex="1">
          <mxGeometry x="1241" y="350.00000000000006" width="30" height="20" as="geometry" />
        </mxCell>
        <mxCell id="4f-DMQIj-ya-iA7LCkDa-28" value="" style="shape=cube;whiteSpace=wrap;html=1;boundedLbl=1;backgroundOutline=1;darkOpacity=0.05;darkOpacity2=0.1;size=7;direction=east;flipH=1;fillColor=#d5e8d4;strokeColor=#82b366;" parent="1" vertex="1">
          <mxGeometry x="1241" y="381.94" width="30" height="20" as="geometry" />
        </mxCell>
        <mxCell id="4f-DMQIj-ya-iA7LCkDa-38" value="&lt;span style=&quot;font-weight: normal;&quot;&gt;128 x 4 x 4&lt;/span&gt;" style="text;html=1;strokeColor=none;fillColor=none;align=center;verticalAlign=middle;whiteSpace=wrap;rounded=0;strokeWidth=3;fontStyle=1" parent="1" vertex="1">
          <mxGeometry x="720" y="318.35" width="99" height="30" as="geometry" />
        </mxCell>
        <mxCell id="4f-DMQIj-ya-iA7LCkDa-43" value="" style="shape=cube;whiteSpace=wrap;html=1;boundedLbl=1;backgroundOutline=1;darkOpacity=0.05;darkOpacity2=0.1;size=10;direction=east;flipH=1;fillColor=#dae8fc;strokeColor=#6c8ebf;" parent="1" vertex="1">
          <mxGeometry x="799" y="278.35" width="20" height="40" as="geometry" />
        </mxCell>
        <mxCell id="4f-DMQIj-ya-iA7LCkDa-50" value="convolutional" style="text;html=1;strokeColor=none;fillColor=none;align=left;verticalAlign=middle;whiteSpace=wrap;rounded=0;fontStyle=1" parent="1" vertex="1">
          <mxGeometry x="1280" y="317.09000000000003" width="138" height="23.88" as="geometry" />
        </mxCell>
        <mxCell id="4f-DMQIj-ya-iA7LCkDa-51" value="elu" style="text;html=1;strokeColor=none;fillColor=none;align=left;verticalAlign=middle;whiteSpace=wrap;rounded=0;fontStyle=1" parent="1" vertex="1">
          <mxGeometry x="1280" y="349.03" width="138" height="23.88" as="geometry" />
        </mxCell>
        <mxCell id="4f-DMQIj-ya-iA7LCkDa-53" value="sigmoid" style="text;html=1;strokeColor=none;fillColor=none;align=left;verticalAlign=middle;whiteSpace=wrap;rounded=0;fontStyle=1" parent="1" vertex="1">
          <mxGeometry x="1280" y="379.03" width="138" height="23.88" as="geometry" />
        </mxCell>
        <mxCell id="1nb-TbvS0D6eZAOunGUH-10" value="1 x 64 x 64" style="text;html=1;strokeColor=none;fillColor=none;align=center;verticalAlign=middle;whiteSpace=wrap;rounded=0;" vertex="1" parent="1">
          <mxGeometry x="1081" y="319.99999999999994" width="99" height="30" as="geometry" />
        </mxCell>
        <mxCell id="1nb-TbvS0D6eZAOunGUH-11" value="32 x 32 x 32" style="text;html=1;strokeColor=none;fillColor=none;align=center;verticalAlign=middle;whiteSpace=wrap;rounded=0;" vertex="1" parent="1">
          <mxGeometry x="1000" y="320" width="99" height="30" as="geometry" />
        </mxCell>
        <mxCell id="1nb-TbvS0D6eZAOunGUH-12" value="64 x 16 x 16" style="text;html=1;strokeColor=none;fillColor=none;align=center;verticalAlign=middle;whiteSpace=wrap;rounded=0;" vertex="1" parent="1">
          <mxGeometry x="920" y="320" width="99" height="30" as="geometry" />
        </mxCell>
        <mxCell id="1nb-TbvS0D6eZAOunGUH-13" value="96 x 8 x 8" style="text;html=1;strokeColor=none;fillColor=none;align=center;verticalAlign=middle;whiteSpace=wrap;rounded=0;" vertex="1" parent="1">
          <mxGeometry x="818" y="319.13" width="99" height="30" as="geometry" />
        </mxCell>
        <mxCell id="4f-DMQIj-ya-iA7LCkDa-4" value="" style="shape=cube;whiteSpace=wrap;html=1;boundedLbl=1;backgroundOutline=1;darkOpacity=0.05;darkOpacity2=0.1;size=70;direction=east;flipH=1;fillColor=#ffe6cc;strokeColor=#d79b00;" parent="1" vertex="1">
          <mxGeometry x="1019" y="78.35" width="100" height="240" as="geometry" />
        </mxCell>
        <mxCell id="4f-DMQIj-ya-iA7LCkDa-5" value="" style="shape=cube;whiteSpace=wrap;html=1;boundedLbl=1;backgroundOutline=1;darkOpacity=0.05;darkOpacity2=0.1;size=70;direction=east;flipH=1;fillColor=#dae8fc;strokeColor=#6c8ebf;" parent="1" vertex="1">
          <mxGeometry x="1050" y="78.35" width="80" height="240" as="geometry" />
        </mxCell>
        <mxCell id="4f-DMQIj-ya-iA7LCkDa-1" value="" style="shape=cube;whiteSpace=wrap;html=1;boundedLbl=1;backgroundOutline=1;darkOpacity=0.05;darkOpacity2=0.1;size=110;direction=east;flipH=1;fillColor=#ffe6cc;strokeColor=#d79b00;" parent="1" vertex="1">
          <mxGeometry x="1099" y="-100.87" width="120" height="420" as="geometry" />
        </mxCell>
        <mxCell id="1nb-TbvS0D6eZAOunGUH-53" style="edgeStyle=orthogonalEdgeStyle;rounded=0;orthogonalLoop=1;jettySize=auto;html=1;entryX=-0.017;entryY=0.458;entryDx=0;entryDy=0;entryPerimeter=0;fontSize=24;" edge="1" parent="1" source="4f-DMQIj-ya-iA7LCkDa-2">
          <mxGeometry relative="1" as="geometry">
            <mxPoint x="1305.92" y="109.92000000000007" as="targetPoint" />
          </mxGeometry>
        </mxCell>
        <mxCell id="4f-DMQIj-ya-iA7LCkDa-2" value="" style="shape=cube;whiteSpace=wrap;html=1;boundedLbl=1;backgroundOutline=1;darkOpacity=0.05;darkOpacity2=0.1;size=110;direction=east;flipH=1;fillColor=#d5e8d4;strokeColor=#82b366;" parent="1" vertex="1">
          <mxGeometry x="1107.47" y="-100.87" width="117.53" height="420" as="geometry" />
        </mxCell>
        <mxCell id="1nb-TbvS0D6eZAOunGUH-29" style="edgeStyle=orthogonalEdgeStyle;rounded=0;orthogonalLoop=1;jettySize=auto;html=1;" edge="1" parent="1" source="1nb-TbvS0D6eZAOunGUH-22">
          <mxGeometry relative="1" as="geometry">
            <mxPoint x="710" y="300" as="targetPoint" />
            <Array as="points">
              <mxPoint x="670" y="300" />
              <mxPoint x="670" y="300" />
            </Array>
          </mxGeometry>
        </mxCell>
        <mxCell id="1nb-TbvS0D6eZAOunGUH-22" value="&lt;b style=&quot;font-size: 24px;&quot;&gt;r&lt;sub&gt;t&lt;/sub&gt;&lt;/b&gt;" style="shape=cube;whiteSpace=wrap;html=1;boundedLbl=1;backgroundOutline=1;darkOpacity=0.05;darkOpacity2=0.1;size=10;direction=east;flipH=1;fillColor=#f8cecc;strokeColor=#b85450;" vertex="1" parent="1">
          <mxGeometry x="500.5" y="280" width="140" height="40" as="geometry" />
        </mxCell>
        <mxCell id="1nb-TbvS0D6eZAOunGUH-27" value="256 x 1 x 1" style="text;html=1;strokeColor=none;fillColor=none;align=center;verticalAlign=middle;whiteSpace=wrap;rounded=0;" vertex="1" parent="1">
          <mxGeometry x="521" y="318.35" width="99" height="30" as="geometry" />
        </mxCell>
        <mxCell id="1nb-TbvS0D6eZAOunGUH-45" style="edgeStyle=orthogonalEdgeStyle;rounded=0;orthogonalLoop=1;jettySize=auto;html=1;" edge="1" parent="1" source="1nb-TbvS0D6eZAOunGUH-43" target="1nb-TbvS0D6eZAOunGUH-22">
          <mxGeometry relative="1" as="geometry" />
        </mxCell>
        <mxCell id="1nb-TbvS0D6eZAOunGUH-47" value="" style="shape=process;whiteSpace=wrap;html=1;backgroundOutline=1;rounded=1;shadow=0;glass=0;sketch=0;strokeColor=#9673a6;strokeWidth=2;fillColor=#e1d5e7;size=0.15833333333333333;gradientColor=none;" vertex="1" parent="1">
          <mxGeometry x="510" y="78.35" width="159.5" height="110" as="geometry" />
        </mxCell>
        <mxCell id="1nb-TbvS0D6eZAOunGUH-46" value="" style="shape=process;whiteSpace=wrap;html=1;backgroundOutline=1;rounded=1;shadow=0;glass=0;sketch=0;strokeColor=#9673a6;strokeWidth=2;fillColor=#e1d5e7;size=0.15833333333333333;gradientColor=none;" vertex="1" parent="1">
          <mxGeometry x="500.5" y="90" width="159.5" height="110" as="geometry" />
        </mxCell>
        <mxCell id="1nb-TbvS0D6eZAOunGUH-43" value="&lt;b&gt;&lt;font style=&quot;font-size: 24px;&quot;&gt;LSTM&lt;/font&gt;&lt;/b&gt;" style="shape=process;whiteSpace=wrap;html=1;backgroundOutline=1;rounded=1;shadow=0;glass=0;sketch=0;strokeColor=#9673a6;strokeWidth=2;fillColor=#e1d5e7;size=0.15833333333333333;gradientColor=none;" vertex="1" parent="1">
          <mxGeometry x="490.75" y="100" width="159.5" height="110" as="geometry" />
        </mxCell>
        <mxCell id="1nb-TbvS0D6eZAOunGUH-49" style="edgeStyle=orthogonalEdgeStyle;rounded=0;orthogonalLoop=1;jettySize=auto;html=1;entryX=0.445;entryY=-0.012;entryDx=0;entryDy=0;entryPerimeter=0;fontSize=24;" edge="1" parent="1" source="1nb-TbvS0D6eZAOunGUH-48" target="1nb-TbvS0D6eZAOunGUH-47">
          <mxGeometry relative="1" as="geometry" />
        </mxCell>
        <mxCell id="1nb-TbvS0D6eZAOunGUH-48" value="&lt;b style=&quot;font-size: 24px;&quot;&gt;r&lt;sub&gt;t-1&lt;/sub&gt;&lt;/b&gt;" style="shape=cube;whiteSpace=wrap;html=1;boundedLbl=1;backgroundOutline=1;darkOpacity=0.05;darkOpacity2=0.1;size=10;direction=east;flipH=1;fillColor=#f8cecc;strokeColor=#b85450;" vertex="1" parent="1">
          <mxGeometry x="510.25" y="-40" width="140" height="40" as="geometry" />
        </mxCell>
        <mxCell id="1nb-TbvS0D6eZAOunGUH-54" value="" style="shape=image;verticalLabelPosition=bottom;labelBackgroundColor=default;verticalAlign=top;aspect=fixed;imageAspect=0;image=data:image/png,iVBORw0KGgoAAAANSUhEUgAABdIAAAXICAMAAACJZcxoAAAAQlBMVEUAAADw8PCEhIRQUFDk5OQ7OztDQ0P////GxsYSEhLd3d36+voyMjLOzs4lJSWnp6d3d3e5ublubm4HBwebm5sfHx8TB0FbAACIE0lEQVR42uzdgYnEMAwAwTwETji4/3b/Ll14mSliMUZC1/PM11o3AEdaa2b283w+1/PMni3pAKdaa8+ev1/SZy4Ajrfnm/Qt6QAB80v67AuA4832SgeIeD9e1roAON5akg4Q8Sb9vi8Ajnffkg4QIekAGZIOkCHpABmSDpAh6QAZkg6QIekAGZIOkCHpABmSDpAh6QAZkg6QIekAGZIOkCHpABmSDpDxJn2ckwYIeJO+JR0g4E06AAWSDpAh6QAZkg6QYeIFIMPEC0CGVSOADEkHyJB0gAxJB8iQdIAMSQfIkHSADEkHyJB0gAxJB8iQdIAMSQfIkHSADEkHyJB0gAxJB8iQdIAMSQfIkHSADEkHyJB0gAxJB8iQdIAMSQfIkHSADEkHyJB0gAxJB8iQdIAMSQfIkHSADEkHyJB0gAxJB8iQdIAMSQfIkHSADEkHyJB0gAxJB8iQdIAMSQfIkHSADEkHyJB0gAxJB8iQdIAMSQfIkHSADEkHyJB0gAxJB8iQdIAMSQfIkHSADEkHyJB0gAxJB8iQdIAMSQfIkHSADEkHyJB0gAxJB8iQdIAMSQfIkHSADEkHyJB0gAxJB8iQdIAMSQfIkHSADEkHyJB0gAxJB8iQdIAMSQfIkHSADEkHyJB0gAxJB8iQdIAMSQfIkHSADEkHyJB0gAxJB8iQdIAMSQfIkHSADEkHyJB0gAxJB8iQdIAMSQfIkHSADEkHyJB0gAxJB8iQdIAMSQfIkHSADEkHyJB0gAxJB8iQdIAMSQfIkHSADEkHyJB0gAxJB8iQdIAMSQfIkHSADEkHyJB0gAxJB8iQdIAMSQfIkHSADEkHyJB0gAxJB8iQdIAMSQfIkHSADEkHyJB0gAxJB8iQdIAMSQfIkHSADEkHyJB0gAxJB8iQdIAMSQfIkHSADEkHyJB0gAxJB8iQdIAMSQfIkHSADEkHyJB0gAxJB8iQdIAMSQfIkHSADEkHyJB0gAxJB8iQdIAMSQfIkHSADEkHyJB0gAxJB8iQdIAMSQfIkHSADEkHyJB0gAxJB8iQdIAMSeefvXvbcROJwjAatdUoNzPR2Hn/Zx2lLrxFlzHHtODXWqGBPlx/2irKBIgh6QAxJB0ghqQDxJB0gBiSDhBD0gFiSDpADEkHiCHpADEkHSCGpAPEkHSAGJIOEEPSAWJIOkAMSQeIIekAMSQdIIakA8SQdIAYkg4QQ9IBYkg6QAxJB4gh6QAxJB0ghqQDxJB0gBiSDhBD0gFiSDpADEkHiCHpADEkHSCGpAPEkHSAGJIOEEPSAWJIOkAMSQeIIekAMSQdIIakA8SQdIAYkg4QQ9IBYkg6QAxJB4gh6QAxJB0ghqQDxJB0gBiSDhBD0gFiSDpADEkHiCHpADEkHSCGpAPEkHSAGJIOEEPSAWJIOkAMSQeIIekAMSQdIIakA8SQdIAYkg4QQ9IBYkg6QAxJB4gh6QAxJB0ghqQDxJB0gBiSDhBD0gFiSDpADEkHiCHpADEkHSCGpAPEkHSAGJIOEEPSAWJIOkAMSQeI0ZL+8+cPAC6vJf0fSQcI0JIOQAJJB4gh6QAxJB0ghh0vADHseAGI4aNGADEkHSCGpAPEkHSAGJIOEEPSAWJIOkAMSQeIIekAMSQdIIakA8SQdIAYkg4QQ9IBYkg6QAxJB4gh6QAxJB0ghqQDxJB0gBiSDhBD0gFiSDpADEkHiCHpADEkHSCGpAPEkHSAGJIOEEPSAWJIOkAMSQeIIekAMSQdIIakA8SQdIAYkg4QQ9IBYkg6QAxJB4gh6QAxJB0ghqQDxJB0gBiSDhBD0gFiSDpADEkHiCHpADEkHSCGpAPEkHSAGJIOEEPSAWJIOkAMSQeIIekAMSQdIIakA8SQdIAYkg4QQ9IBYkg6QAxJB4gh6QAxJB0ghqQDxJB0gBiSDhBD0gFiSDpADEkHiCHpADEkHSCGpB/gtsl/G/z+Np+b/LvBD0DST+TxfUn/9XvLvz8+lp8lHS5L0o+Z0u9rv7ZO6b/WHRX0NVGXdLgoSb/UlF6dXhv1FT1vp1boYdUh6fCWpF/E7bZ+Rt8+pW8f05dG3cILXJWkHzKl379pSm+JXl/0ivnCqrekD5IOVyPpx+14ua+53jcvvKyf1CvmC6P+8ZzShxWnQdLhDUm/iMeqnu9bS187pbevUa/nel5T+vKom9LhJCT9qCl9Vdf3bGIc9XrJ0eV65tFo+2qptvACFyPpx6ylr+n5nil9XdDbpSq+4BHpxk2Mw6cdLzBH0i/iVhZ3ffuU/jzaqXX75c3zqJLPBv3j2fVRqoc3d6Z0OBFJ3++xuufH7Euvste1TnV0JrM+fjw6rJrRJR1mSPpFtEjfv+WjRi+n9JrP6yd1VKbfz+ntt0+V62V3drzADEm/iMettLYvue6e0hcP6b9WTOi1RvNZZmo+WHiB05D0A1TPv31Kr+tk02sCn96Y3k/xFetF07qkwylI+n6PGr7/9ibGKnVVvAv7xMb0iZcCTKhWL5rR7XiBU5D0A3TrLkuqvnPh5cs0Pj+lV9i7qn+8GNM/y4t4Fx81gjOR9P0eVesyU/Ujp/R2N7rpo16tbqam9PrDZ6nr3JX9+Y0dL3ASkn6ALzW/L5jRNya9q3h/9L+o0bxG8VHPP+p4qlBPrbJ4PArnI+n7ParW7TJb8wOn9Pp+cnyvfJfqd127HS/LDTYxwjlI+gFum1Zejp/S6xh/82oYr2X07jft1Ee73rhYGR+84wVORdL3e1Sta+/5jPsRU/ry1zFWx0uF/dVPx+8D+Kp6XhdJh/ck/SIq53WpuvfX5qgdL/OD+tOrD5COx/T65vX6yoTBlA7nIOn7PSrTM45beJkLev2+Ml1pr9PkmD5aZKnreGj32i44GUk/QMv0aFCfeNtuue+f0ueG9JrUn/rNLv2Y/n5fet1X2/2vRnAakr7fox/BS/X8iIWXuWejddTpa7DrWqN6H/1xvuu+8VEjOClJP8BEy2tqP2zhpQbvUdMno/78GtW86/tHvzIzH3A7XuB8JP3AHS8V8j7idd75eLTP+ETXK/vV7P7lAGX8Z5+LF9EH73iB05D0v7Mvvc97rbzs+vRoP6VP/6Bi33RDed32z0hf1nvymakXAsA5SPp+j+5haF06x03pXcAnI9+KXT1vXtyO/qyL9thgxwuckaQfYHKB5T794/tx70ufj3oFvFuF6cNemxi7evf8r0b/s3c22o3jxhIer8ZSbNw5s1ntvP+rXqWXy3Kr2GgA4siQXCUQf9TYTnLOlzrNRlOSppKQfrvOSa7LjhkvBOvsoBGq67oKAET5auCFkxe5SIBcuiRlEtIfRI7mf5EhJ43H0sN3SUc3QHTiN2w69rFcqQ1mQ1gq40WSppKQfrvOhHKAm5w6hj3y0tcrsO82ocBKUD7dwT2DN+7rrUaSNI+E9B1EFjyPp4+7dG5+5TZDm85hdROWW8bcV+vSUSNJmk9C+u06A+OYEMf3rMSIFrt0OHSKs2AnfgdG4MXB8wXyequRJM0kIX0HxWdEsUB3c9kubrxwHcgNebKzTd8q5aKMF0maXUL67TpH9MaatYdLDxZUgZcqu4RVuxBpr0bNaf+owIskTSEhfedKjBAMOUdkxk+P9kF9wTrnoGPlNrEkmB9B72WiGi+SNJ2E9D0rMVJQPU5U3yeW3lKMMTgpGh9Asg4kV8aLJD2OhPQdlKSgE85tskvGS0BzDEv3BzMbC2sQBV5Adb3VSJIml5D+G949SnEXLua1T+AlAzpcOgVWaBctfp20NT8o40WSZpKQvoPirHSOrO+cl56/qC54/HnVSEB2oqMyXiRpHgnp+1ViZDfOjMf8Rpceh174Tt2nE+Rt5Q26Ai+S9BgS0ncQeXQsdq7xwm++yG06u3LeYOJvcdvHXPRWI0maT0L6vm81Sh6R7vXu0bwWI1qLGPgO5AxwLBfGK+NFkjIJ6Q8ieHL49NorMcbrpQfHRJMGXEeNBWQnOsqlS9I8EtJv17lmz1kzunRmPHt0b8n1OmlJmlFC+g7iB6N+hHXHdAzpoDiGlOsDJp2K6wLjuOFmdgnpkhRLSH8QnYFua8R1aJckxjiNcdymE+SzKItegSFJM0pI30GEbiywtU8SI/tyGkZsOht1KqjrLLmfqmyXJM0iIX0Pl55oX5fOQOdN9KN63ZZcuiRNLSF9B71/v3ys++fzjgU+19P3091UStZO5VqnIb0M6D/SA+jnkP5vQN8kIf2z9e5kQG/QgtvODirWsI39nVS6OiH9qTWK9NfeJqQL6Z+v9w6B+obBAXIWwNwW61Dsg23c7KfzyJ8mpD+xfv7350C7EPqinl4uXUifQIZoa+tlQ6VdtKdJ53262wf0kW5Benlp7oX0h9HPIfUCXYEXIX0KbXnwVOMu3RpAjW3s42eP2HSsBlx6J9WF9MdQt0G3yyIpl6utl0sX0ifRR2OOaVXfb4ulA+0gPDO/9Lp0/OgRX18UeHla/fg5JMN0k+TShfSJ5BmeR17g0supSwAub5vYpg+adGW8SE7munsuGxb3bd1rNl+gfv4mCemfLOe+m0WOO5/BcftGWC/jXC5k9xtnxZBeusIuQvqjaAG1KR/l0rclpD+IXMRlmUdwB/iRvrIon8UmHXj1UKeWzkztf5Vc+teQEbqH6tZeYdNtxGJzXy5dSJ9DoUePAy/f+126KQI1K2B/Nuv05pgilt5q0YX0BxJo3Yh1E8Ip5MZt1FEjIX1KgeY9T0hhi5tUagAv5MQDPDcAuk/lJpdehPQHEaw3JtXRrhXozorbGiM6a98kIf2z5T06FhnSu+xwq033QMeAaaKev4pceqs3Lwq8PJbYpMfCl8iJO5zLpQvpk4o9uik9alTaYyIEcCjOTMfa2fC4kVdPZ8p4+SICp+HCo8G0xtIpZG7C6LJfhHQhfQaRLQfas7x0z2me5bF0zkznBPYum44fls8446XZohdlvDyQfmyEXOJhnS1RF4qkA/VeqvEipE8hAnkiykuPwckgz0CMi5IesQiaXW04l0v/WuKQC3Ocx9cglO5G3JJLF9LnUODRs8BLbtPpdszkkPfYBOQDlXaaJ7H0WLitggCPJKB7acR2TGHk2Ydz+qJi6UL6dCKPjo2KGNXJLE9YpKwXT93MpO+Sl86xFSyubsulP44cuwntCKP7b5FD50gLvqC8dCF9FvXE0fElYrWbYtJk0tmP03YqKsVrrXGvrbhuUeDlQeVC6Z7t6DFBQYAA4Wg6PSqkTycCOTa2WuDSS2C6G106QMv7yGhpjqVD+R4UuHK3KkL6A2qb2ljTfRvdWVEXaPETa6rxIqTPohGPXst4AXhHbLpHN5dZryn7W3gvd+klYHlRLP2BRLh2G5j7fbCbounrzC5byaUL6ZMo8uh1qrNLLwFgGzNeSuCfCfzc4r8l2/Mrgva2ilz6o8mHysmm25y5vqIbVh2yOTJi9FYjIX0aBSRPIi8tvGWwJzjGAk9IEywn7E/2/BcI2sUP61RvNXowBTEX9ukY/+tdOme82Aw3FEsX0mfR0EkjculYJ3GQSIVDNaUzLx3CBu/FArIzFbn0h5JHN7DtF5TxAnQD5K/k0q0pli6kT6PYo9dEthcb0fvociJjRiOmoUqfT+cv8OFRTIqOGj2wXDkuazZ1MOcTpCunIdR3AeIVSxfS51Lg0ZPIy5Y1xhAlOCZIJppT+cV2m84qyTpNYkToRa/AeCyB2BD2iPSL4MxhxSmirrcaCemzqdejB/XSk2T0Jp8e/KgGpfW9eI9NOxnz2KIXufRHkouke7tOwn3vzDHF41K91UhIn1AAOHv0WGSOMSFejtp0InHSEo+eBteJ3WluehHSH0L0EBQC3ClZ3bBNUIf84VJlvAjpk4h8eVPkhdHIs45genDqdNSkZ54cW+TSGdu8rYIADyZPbqqmGySrG6aXDvNXfPTuUSF9Ro149O+BS6cZBcFDGmeHk/Joep6EzluF8tKLCgI8n7hSV7B0+euvFG4JcxoVSxfS51HNo8faQmOhmDjUnZYesHoo4QV/H38rzksvy0UJ6XpR3YPph4+iY+WOG5FP3zzxjw25dCF9TnGuix+5+Vh6XP6wUAsUgr09MT0/LFryWPpFykt/RrEl50R0jr6A2nT+H6F0ZbwI6bOpx6PjFrMR0xDgJWpBLDwifer/452alY/T0FW267GF2HlUswubmHByiw2KpQvpc8sIHXp0L+ySP8Y8CoLXxLa87/RoKkA9d+nAN4de9Hj0EUX8xqySyMhxcxvdnjJehPTpRLx2Y1hcF6qFr1uzEVvODHWZ9EI7W6/U8MtWi170VqMHE8DtI+lun9LVUVfXZhxNV710IX1GLdyuenRW7tLZX8cqsbunObXG9BYMccYL01vvHn0GOZxzFQDcqLl0PCLFljJehPT5BH5venTS9ziWHtd4ycMmEZ9Ll0nPE9OzjJdSrQMA1gvpj6Mf7rg/5yxSXCaKpdsI765YupA+oxy305wXdumejUEWYpaWvp2I3lrjpac6emmLpccOXTVeHk8cKY/L6mLhqE1zG5TxIqTPJ6J54tFNYcZLmIbYZdO9p85V8rOiAH1o5cPiXFTzRYGXxxIoDphTMQDaX425M+lYXC65dCF9PsGKM9U7M16SGi8plOln2VDyRqK9gObVeulYFsXSH1pw32TTIfqOy0vHAgEYLvIipAvpny8idu2V0usdMulMzg6TXjoDNXk4ndf5KdWXJhW9e/ThxChHb5envX+rEdM80KtcupA+gz6Cus2jhy49CKb3AZq43tJKyw/NAj1RXXRlvDy6gG1AnWw7Lo6lw4nbHMtXrOTShfQ5tJDaOvLooeLT/NjqOj1aiLD9Jj37DUnJgbiKLkCvWPoD6gfAHZfq4vugNw4Z2ZrqqNtELl1In0PvTukbpa2LaryUwRovDNg+k96qEkSBgli6Z7hOjz6syJtTyGWr8C4nubxSirr378p4EdIn0MJqQjnWEKDOCAaHQ84mSKZVq0prsytMf08SGHFHp0cfTI7kPpqOGU05RdF6jFjZjgIvQvoUomNEiaJYOvq40HlHYvrOJh2KjyIRu91SsfTHlcM1W3VGvV1s0jFCoL6SGIX0KfRuYo+eBF4gLnQ4lJiORb9Ke8P3SaB3dnRUp0cfS67KIvDNmMcMLh2hdI62+GQYuXQhfQZRMjqWnRkvWHUfH3X3SlcbwH9g09mZ6/Toc8gRm4+M2owj6mEo3RrVY5RLF9LnECejw6N31UsvSY2XhNbDiO5rSK4hVet14Y4CLw+nOFeRYY5xPTtKLyHdMuoqriukT6L3uimnxjVeoJLUeOmD9L4ePY8BVcx4UV76I8uA7fnN1QEw54wXTnjBPWwp40VIn0F0YDT36BdFEK7VeOmNpJQdbXqWTxO+e5T5rtOjDyeKtzgB+P4RqTtW5B6QYoEtPR4V0icRe3QOq3MWo6Nklvh92/HR/W16qWa8sIpfyaU/mqIsdGwklRgBdefYnXNXJUYhfQ6RR6+91ohOj1IqOhO8K5IOmP9el44J1shlsZ5UFHh5TP0AqMMAjDHfQ92ZdHLsWFyaKjEK6fMI/CaYt1Zi9EMhhOeALnc06cvFPyUIo0e1AYT0h1G9CgC2/OKVMtIhev+FHo8K6bPofUinJ9RLi4pc+uPp55BCcvuFYulC+lw6DumvAd3vN/38++el/W0DzcP2fUCnAX1/v3x6u8n/T7QMaei/8bvpj7//+ONyuWZXZeObJKRXNDHS//yr/3M4DnyGftO/mLbOzStEH0K6RW06u26e28f+9bzdkO7y3/iwwGq0bOObJKRXNDHSL1b4z85rEOn8s/JrxTSI/Ztc+ggAjdB9n0ubhd1b3X2RvgvUS4tLJ2QbxGlDLl1In0nHIV3AaX64Y/zz8s8OXZcN9LPy8a8NXhPQuV148Z5e1rAaocs7fkwwo3b5TMLuze6eSO//63AorvA2urLuLKNBGvRGizfk0oX0qiZH+kUG0cax26X/M3T+EqM68dp4Tps7uPRy6lWBS+/6nOaA9/4u/aW5Ryx9yKCD5RB/DYuNyMr1Fu0oL11Ir2lmpJsf7nPQAx79MObSwevcpWPW4NEXYYU0zWyGhXPftRmaYunfX5YLNrqp44TX8CCFDVhZLJ1Yvlzr2ga5dCF9Io279IWimMVru44DkXS49I7rT+Z3/GwU0xwrBle3BCOyGVYfY+TxjF16Oc2qMoj0dosO9b4cBfLQXkZerMuPIZW1sw82fdhFLl1Ir2tmpDcDHaBdbHfnhbBKv0tnenPD93o9ertL9/MWk44lXDp+7lSze2e8mNr/sA/N3cAe5p7ugLcD+XIta7l0IX02jScxulZf285IwgsexPaE1InfSetNYgTZS59Z5IyXIHTOk4KfMNus3D2JsbT+YfH/DCSqReGAbRjH2k8VSxfSJ9KNLr0N7TYehoLp/se2jUuYxVnxqOF2Z76LCTav1jD1GS+e4Zj5nalduulOSH/xR43yP4xtOheEiF+n6MIrCLHEqS9y6UJ6opmRnsfS2aX3BdNdLL2V6ZcLLt3Z8BzqnR7drqbzLKWS8ZKE0bFXZoyll39xOCbjdPtlQsy76Q/j3fyfI4nRRctTm668dCE90cRI95gFUGvNSN3uz5f51U+tj8tsYTho3RR66YqlXwEmN+lYJSbdmXjv0mex5ozLMqLTbbH09A+LM15ik46vFUJ3hehy6UL6NDoO6YqzgWP27dDq0pf2z6rHpMOl5ydGORmmPeEFjAda2vMumOT4xBv/+5czBdAdLz/p9Gj+h2UZL3wb/5CiKjZgg6bKeBHSE02M9MCl2wjA+9YVQ18/genfXFsHl97k0IH9do8OEVPQkoyXPIzuNxyQPnl2/1g6BPS2/WFo2AhMOoS8dDS5dCH9MTQcS0fD1BE2CLw0OnW7juTSQ7pjyi49b6lL91Rfr48kKX0ZL9fPPxObfjpNgnN6+HhbXrpd3IVb7r/T9A/jUHrNpaMlLp2xrowXIX0W3R54CVhL2AXPj/m1fnKg86+joEpT6KXVo/e7dM8K4nXg1/29MgnNy6e79FP8hzHIB216QSy9ynAgXi5dSJ9EO7h0kLW6bUTviacjlp43Z9Y3DxilNj316HZ5zoMOXRkvRuo2m/5vN1EIvXxmLB1IDh13BGq3zG36JtDdw9J1ZR9lvAjpU+gOLn0Zejw6Wo3j0XNSh/CmTMakxkuodpOOFVid+HQ333o79+fsYbarS3/BDBOecdIK5wLFpIafz995+EcUNOd95aUL6fNoH5eOWRwSOR5GMtOT3EhMP6zpdUZ5NmPi0kH3MJbel/GCjmnOPPdHbDB+1l7Zz6W/EMMxJaz7tFF+NJryPU54YcA7YNOcozDKeBHSp9ANLv0qtpK59EaPbg0DQTz6Ja5eOvJdmlx6kpdOeKfIbo9N9yxfUJ7G11HRm8zy/fcwv39eeiE2U0UX3MAeOfvEpBvSKWJOb8DAfbl0IX0O3foKjDAiQqA3Rjc4c7/2WS0VqGOr4tK5YZZ7dPbp/8LCPo16j206wRx3gxOSn7FnbZ+MF9ZLskVRlxJ5bw9qQB1hl8SlXwRe4zEou3SbKONFSJ9DxyFFoQ+eYmG0zj26Xx22Iuc2rVQfAKxpoJbmpVcVM8HZw8ClR3W6eN9i6SVO4Lj/3v4ZLy80xxbEKYwY+M8Mli02vSyOfMOlo1s3VYlRSJ9FN8fS69bchMBLZyzdH2oC2G0alw6DPc/DLshzbPXo6N4p/4LF5pFP/nt8u811EvvQO+5ha6dYuk9Cj4WvcAwdfYn/8ArYI8IH1RZBcG/T9e5RIX0O3ejSA7ajYTupl853Dez4eRS2D2M+V0H0Rpeee3TwPMq/4Ma0oJjLOtCHarx8nk+/3tkt4wUC4WmAOB7ObzHKXDumecYLER0E5125dCG9qpmRzvjGlDm7uPT2GDoAT+Fy64jxwy4dswaPTnecV2x36RQrp4G+tEEerO6wR+GKu+el+9Oj/HI5zHE7seklNumZS7+6J5cupM+iUZfO0M7OHgHUbR4dLt39XGyEwXSidebSrbXF0f094KQrL50fgqYBdmaPm/7uPabkTrH0lyaQQ/jLYrYXXpQA9LhPcrwml84OXrF0IX0K7fNWI268B1SnHwC+5tLD3+RpfYNLTyiPWHpJbToWDHOmOhMf7PkMj76Byd0yXhjrHHPBPEaxXwfoprzGqkvPawKg6d2jQvoc2sOlM1hxHzPQPPHnDvwbMXq7yKVjsbr0tCCjm7V7dNwnAFJjAG2mKvIQuPS7R9JptqdLh15wVXWqmXQsS27S6UteBTbcN+zqrUZC+oQ6DolQSiadUQt4A9lbvt1DPsqSRCoj/+4el44vtXt0iABIwp3bXDp+0r2S0PPKLvvH0nOjHv4/G2coxi4dOHeEdy136ZyeLpcupFc1MdLTsouYr80d9M88euzS0dD5+12xdDSiOIkJn5t0JlBTKJ1j6eWzEl7KlesljZ8eHQimB8nlFCOq/afD/VowPWA52/RlrYwXIX0K3ZTE6NCdvX2IKB58POBr8fkoN70lyYW/8556dBZFZUl8c+vcKBpGj3ww6L4+vdCscNvNpeeQD4IohbaSDHtQvTXjhc+SyqUL6RPqOKQQ3WScMR4RacGUryvYR2eK8Mu4NVYAsAvTbo9+keN20NxNn8Rok+QDl34PTx5/CwPptqNG/MoLbKKP8tKxIuNestOkJcl4gSNfO2/T5dKF9Pk07NJdwyx264B1HEVn0OcRe2qJS48q7vZ6dGS8pOK3GsGG+3T00LODWbsfDI2VFavFcI+8dMN6bLp7n2lgiF06v8sIm+zWlZcupNc1MdKJo0RdNta+wou11KMvv4l+CyEeDS69elyUv9Pp0U39Jh1luzj2wh9skoXe36fbouGfMRdvQ/pLT/QlMOlOHSYdW7lLx2iNd+TShfS6JkZ6Uhw9yEsnb35MPPri0pPk99ilBwY9cOmdHh2VGJtD6Vy2y8OcGnbvkIiOde7uAcRdCwKgxwwilx6EWnpC6bFNZ5celWGUSxfSJ9JOeenU2Fc7loPnsUe3LfyQhkax9OTIqNvt9OgATAHWuTEGHbATk479MNRddtszReaWtrAo+7zVKCvahcejcc0WzDKbnjv9f4Aul/6vhPQH0W88PWoX1iu046x0D3i4dKI2e/XYpceBF3+r06PbFSdYxAUBPbHjdxn578F67u3R8+roYY0XDEOKQM6oxzSo2UJ7pfGxQBJLD5PS5dKF9El1q0tvf+tQkJVe9ehx1B6N90FsdurxnX6PjvyLjsOjhc4TMc/9Plz6jpH0ji1/i4MX4y6duZ3W2+WYC/6OPC/d7za+1ci3dQTalfEipE+k4Vg6N4bvtUtfmwc3e3RstjwSDVw6wN4UeOn06HYRRkicPu34zYYcU0f92FeP70FpMjcz37F+TPFLo+Md+jPa8tJDdMcu3bvy0KUrL11In0vHIcUojyu/GLTjeDoX1626dN7DKi6r6wdP+n6PzvkX3JiNIDc9GKUFpomJHtsr1MK/Pi6Rco93j4LuxOu4iG6YpxO0K3lXHsbUlZcupM+l45CAbmrhaivEEh08wg38iLiuy/UqOSwarDo8ekcsnc0kMM5B83hBv2TPg6GJdQ2C6Xd4PMp3qOhvdxHd0mjToxOiQYxdsXQhfQ7d7NIx47WD7XaIxRpBHv7d8xrdoEuvrNo9OgQUJCbdx9LB68SlYwMQ3fVgaMkaBza8yo710vkkKSt+IEobIcebXHohYhPg3UoZL0L6HNoxlh7XerGBKjHiA7YT1RnYfIzJ3SeX7gZ0lLje7tFxOYJWrR+W5NBrNh01XqC9D4bakOXVJ+GbIQHiPPMbQLz/QzAtxPIY442xdMZ2tdquYulC+hQ6DikPu/AdAJyd+vLx1LcphVWI4bQglx4lL3oL3+nR2TPmsXQTJbtgoIa7MOn7HwzFWKgtHe463SuWDgHhDHYOChW0zKST/ohcuuqlC+kz6zikKEW8lvvygd/hqVFrDvQbcRXsBFx3Jt0Ijo5dOgIvGcH5/jVCWBzyJX5XynfhLuC678HQ/Eucv83gLEPiaEseW6co0EDa+a4uHU1vNRLSE02M9NSS+w3bQUgFCEfnAQ87z+A2VbNt/FNR+1BYnQnPDM8J3xihdfOA3MmZUvvnux8MTYPrdbsLqA8pQHcV7luG24bsP0+3TfdAl0sX0h9Eg0ivvaGf79jaBcwxYkFxF0pihE2v/j8JPxVlpnPiOlE8j8LApTMUwqrelejKe5yr/tsOhqZGN3kB885vNXpxC3bx+E/juJ39x0n4nb3VyLoU63LpQnpdMyO93aWvs8bCupjZQC9Looz32KUD3j7ysv3EdGV2SHBWTIW4qjf78y2QX+/AE+96MDT/UglqvGD3xnrp1jfLYRyTMBM9gDj283ePOorr3aNC+uQaR3oN6ls+2iWdo23OwHWq84ghaHDprqHjG9aD2plHx5V7Pz6dw/mKWMbVu/BD9jwYylt5NUkOyuzzOmmuC4AJRPy2SZyJntn0+D6dD8XC7eCW8tKF9LpmRvoC1sSlc710ir6Ern3ZoWx0cun8V7hgCwOdAy82gNuZR4eavR/mpVIjHds0xU/c9WCoze3TmrWDFfzxfoGX1LXjlzc9BY1NeMp4Z8z5HRhy6UL6nBquxIhIiOutBadHgWt0zp1jvVIdv4QoHmZOItZisyjhBUsbwPPMo+NKwcB04XrpaP7jpidoz4OhUHPR98JR7J2Rzk4dKz45ldt0ZnhzxgtHXtybjRRLF9Kn06hLB029cXZod1MHcMyTl9eRSQfMr2CPObz3BtAhW5JL79JpQMZqkw3vaE62gelpapUh7fnfeCEuE9k7bbpx2zrKVbQZ3ZFLF9IfWOfKnXPTPzxjPqxzsDOktwEdB/T2dr40+ywdmv98nB6n1uuQ3gb08v3FmnU8XQa/VVoQTrf/GtA3SUiXZtHbgF6Px+4GXmOkFW0cp9Yo0n9dmnXNDRQHs62LW/Aq7gTxJaH3QUgX0qWp9TYgg/Sxr397A6+dM7eVa8v4zC7919LlvXPp8OaYBc1cemrT+aZRe2nrB+3DjaUT0oV0aSYNuXSDdF+/mm/YdSyDzxO79A6ge5e+zHKT/nJqyVpkl96tg5AupEvz6F4uHZymIMtF6G1zmT2pS78gerla+9ylc0ti6blLhw7XzTatU+BFSJfm0qhL74ylH1dKO5z7wfP+eV26YbpJcOkLyDGmDQAfi6UjvkJaga7Ai5AuTaZBl375dFj0S6PsFlu7PV48p0u/aHk8iiGer7F0PBzFvNYA8B6bvoIaWrfQFHgR0qVJdYNLbwW6CaB+wzNQ7ADwNjz149Ff/S7dO/M2pw6C97l0RFa8ISfKG+gVeBHSpak06NKt9Twf9U9DyZZTDuMzPx6FTV9GLDb34dLRcqdeGmw633Mc9xH19cKWkhiFdGkyjSEdqG5w6da5GItrDPcnD7z8Qs4LhDX2IYZ37tKjYgdJxguSFWHHybdbU+BFSJfm03DgpecZ6UUuxgKuL7scc3nmo0YLt70VtzVG3zGw01h6/JK/3KVDBzexAVJeupAuTae3Dzo3Dh7ouVF3j0cpyIJN6zB/Vpe+kBtunHBOyk06t1OkJJZuwZXAnNuwNp0eFdKl6QS6tlPdhV0yqOOo0QbOl4Fx/syPR+HSP4TNsYt93NyCdurSh2w6WfEDQx06KPAipEtzaTiWXn86StTnILpnvEt6ee4aLzDpdvmnpdinvPTO0MtpJJheKPXc5Cy7NbuUly6kS7PphoIA7UnplwuYXj5c7+XLBF5g0sFyyO1TjZd2m14a6unyLY9rDJhhelDgRUiXZtNILB0mvanZ5QIsbNP9+tkDL5uhdFCcYuyjGS8lq8XIt8ifw5wzy20tpAvp0kQCqVtwDpcOWLf13p1TkAWTZfHcSYyc8AJt7I9lvAznpQPWnLyIu8pLF9KlCeVqZjWqH+iW8ULuHFMq9vLcgRfv0m0GhrN7H8x4KUP10g3ctexFBNPl0oV0aTq99cnID1g3nh69iAq7VOIu1p438AKXvjTDeRxIH814ufWtRgciuGO9KjEK6dKECqjNg8946XHpdoHhntvYxto+z5vx8gHd5MdtlzZHM14igOd56UFJABO+IpcupEuzyaG8NZa+RFN6HpBmrxt984u3J373KA4VVaMtm7H0royXQgwn0X2HbspmBMj1ojohXZpSiIQ06exdepNRt4GS0CmPkeIvz+zSg+NFS4ftZU1AH6zxkjK+sA/HEsKmjhoJ6dJUeiPlVEeMvO306L8unb05qA6eW/fcLh2w9hN+Xnr3jBf4cQwcVD+oEqOQLs0pT+ueWHrf6VH/Uroo1eWLvNUIMRWYch+EAe7d6dFmk24ufSTjhXjuEhndRHnpeyL9P//5Jkn7IL2b6khhbD89mrD7w+bTv9UIJ0fhx7m2risOkDtzhnoZzHiBJ4fInB+U8bIz0n8I6dIucsa5NZZukO47Pep4TQ7d5LafOImR6rtYx54dN+HSnQ8Pm30xcOklrfECZvN76bBQQYB9kS5J+4hRngtAb09j9BnnuEB5v/3EbzWiWl12AeergwfsQeuOwEtk00s9ls42nfMWYdMVeBHSpakE9w2lsfTXobx0kHurwIvffuaCAFe8xsQNmFCNl9ylJ/XSk7caUdIiF3aRSxfSpTnlIQ4fzTjHHkDdeXoUjpyXbvvJi+sizkLF05cBo3WdxQAM+IbsxKbzPbDaR8w5/UX10oV0aUK9tWrcpVsDr7k8F7+K9MmL6wLosOuAO4/s0msNLj16Hhrb9MIvo3MjWK+3GinjRZpRvTnphvS+06P+ddL4+AGzZw+8/PLGHAsMvzDahF163k4lSlosQDnddtRG7207tpTEqIwXaS65WAsFzre3APT2cPpC67UPJtaevl46QI4F5hAyXjiuMn56tOrSjdLEbTbpKgigo0bSlKr48TPmflx5noIc4fT4daP+uekXeKuRM+YcS0fDzU2X3vRWo0LNkZ5uEreJ5Vgoli6kS9NpA+bBHDsIpadPR+HS+VCRT0XH3jr9Ei6dYulYAOuM7LxVXmqUvtUI5CbCY6F3jwrp0nyK4B2gvt+lLw0s9yRHf8X7r+HSTcuCQI/pFrN/a42XA8XTKVFdSYxCujShXLg8sOVuHy7duoZmgvumCrrrBr7x1EeNLgqekPr6Lpzx0pX3Anx313jx6MaFhd49KqRLc+qNBLaTyKVbl/eXz4ppQjs6/42nDbz8Iqi7hHSEXLDNKM9bMXwPvNXo4ALlADu96kg1XoR0aToxuyvZLmfE0jvy0k0rpundRjZSTP0LufTlAsvdytQLdJweLZ01XsJDoiC4Ml6EdGlegdmw5xVRXnreI5YObttFeegg+xeLpS9QdxEXF1XPIc5h9gXY/TVeOLjiMY9vqMaLkC7NJrLksUUfPz2KWDr6cxBC/1oZL0uyIuRPGXEsvcmhWweTzsozXmDID0C4H+TShXRpPsXxlngHQG8/PXomnnuSw6h/qbx0uwBxnweDIS3XhbZ2YzVegOrsRXW2pbx0IV2aSwbSqkXnOwB6ezgdoGZfzhvn53+rkUO3X/Hpo16HjiTG/hovJi6RTl5deelCujShelJdzhRLbz89ukIbXMea6jNae9bAS3B61FZGcCY+iJ07dAReClpHjRejtCc3jweV7RLSpSmVR1vYx7c/FwXcQW6fi441uvPXyngBxhdhH6dH+xw6Ml76a7wQwKO3SNtUgRchXZpKRHPiOi/hwJt6ay7hHGYca+L916jECJdOr5Qml97s0FEvfbTGi6c6BKzrFRhCujSjIld+Tl5U19FMC7/RBRxHdvoXqcT4KyyVTrH0sKFKOrn0oRov1hjfB7+j06NCujSfIk/O+5hzAmMeTndxFnp3Ekdjvki9dGAdA8Zelw6ym0uPfDrEtzjogoHmB7l0IV2aTIhgM71xy1v3TqCb4MYd18m3f4GyXVQiHSNhvSeWDrLbcIpV2jNeuAQj5nLpQro0nWJXbh0LBQH6To8C4ZjF1Xaf+RUY/GyUD5MC65suPQ6mg+pAd49NB6zpcSgtVONFSJemEwjeoiGXbpdz374o+nZe4/O+TtpXdgHfF4ijgfBMb2q0ArsHXHpu0uXShXRpRlFSOkXO2brDeze2y0UGPSrfZZOnfjwKgCPAgo5LAwQunfauvgF2U0tj6QcgHKPXQS5dSJcmFJgNMcw95rvOjS6Dc9/8LBRbsOtfwKWbKE196XB3zKVDvTVe6idHD6qXLqRL06pG8kosvS/dBS6dnoJiD4uvVOPFWuDS7Wbk0nmLXHoJW0teOr9O2uugjBchXZpPQR76GQPvw6W/Jj1cuv3DMOeFAzJPnMRI7IZTD0LpDRkvHHo5VVWWi116LGBd9dKFdEmSTIcBnYp306VghT23Lj+G9HZe9HZpl8/aX4bLBdn+m02+SUK6JH1RnYeQbp7aPjbBEtsXufWFz++XK+qt41tv/RLShXRJ+roac+k4xg+0o/GmIb0b6u9CupeQLklS7tL/ssu14LLhwB4dDdt+0wj9I+z/6bApl74pIV2SpN1d+sLptXMfbLvdH7Fgy22CXSH9SkK6JEn7x9KJ14Zwt7tM0WDBfW8NWMfWu1w6S0iXJKkqi6c42Q46P7XBIxscR2Omr7EU6gFxawC8YunXEtIlSWpw6RRBh7DG3DDOTt1z3dM+CLxwsAVb73LpJCFdkqShWDpAzgK8r3IYMaHpP6i2DoNpmQLuSmKMJKRLkjQWSwfXeQ4jDqrbiIb7y/y96tLZpivwsiUhXZKkqsBqm3HshZcHDpr7D2COe6A1mnsiap1celVCuiRJVZ0RSm9y6rb8yG4b0V/RHl8Dplts+ruSGDclpEuSNBZLJ5hDMOeY+C2+u1B606e7TZOSGDclpEuSVNWZUZ4H05cIOZqPrWNzmaPGS+bSEYKRS9+SkC5JUlVgNcYs+eU6qOJojrn70gdgsyPHFqRYOktIlySpqnPmzv2ui6WfKL4S8Ny7dHbktG27cuksIV2SpKoI2pguPQa49PCUqPfpH7aXWDpQHtDdmlz6toR0SZKqOhOxCfAstueUqU63AXRwHI31rlj6hoR0SZKq8gDHwPuYI4huPQfQmemGdECdYzC+yaVvSkiXJKmqMzGcwM6iirrk0ZedD8znwuho26kwOj36/+yd647bOBJG271OOjMOBlkFef9X3R6C25/LH0uUpcyAap6jCy/y74NCuUg6KB0AVrFIPE2oa6oK2/Mu4YoDiboZpVucTpTeAKUDwL49XtzkmnmIzh8HzVKYKnNLtZSX4AiMVVA6AKwiZaepdKMo22Su9mFQqEKXw83v9VO52OOlCUoHgG1nj8ZWfaEZedxNrivG8BaCh3y6wU6MTVA6AKzS21xXjXpv2XkXmrHEumXKrZyxNrVlj5cGKB0Afv/Zo1XhweuhHweFRjlLFLxKYcilp6B0AFilpllCUwdpoB6X+6sJ89Hut2xhkZ9BSsVLCkoHgOeidOk7/+L7oqunbrje8pVFVeNE6YOA0gFOzH9S8kA9ajwtUA/3/R6Mzp8WpXOcdAOUDgCr/HRn28CwLIuF5r6ZV7qwyI81YnPdFJQOAKtYbUsaqKtj/4xa2O65F183KsIu6kTpOSgdAJ7MpS8meKOZNW/MvIXEi59KVy7q0gcDpQOcGBd2FqhL8Q9bLWqoy7Iysrl5W6G5XM/Zoy1QOgB0d2J8OpmuBIvicSuCuXu3o3T5Xd84qG4dlA4Aq2TnGXl5uloLwXVp6qFJUix/mulry0F1DVA6ADyRSzeDZ1F6UpBueXR9SHbRrbNE6eOA0gFOzFoOPfO8ZcxN8R6xhxBd/ep1lz1LjRqgdADYcvaoHte6T7xJ4knmxcvTg7Vlc5k9wt+jTVA6AKySFriEccQdrlRLnNartZ5Illcevd5sCNACpQNAv+Klj6J45dJD6txjdN2qSw/GLm0CR2C0QekAsEo4h06dtAgmrXixqZiSkadjL2bPFbWzerQBSgeAY/ulL1ku3XYACAavMxJ+yKCr64F57bN6tAVKB4BVTNtJnbpH6fmxdA/TpQnOltYVmIegnb9Hm6B0ANgUpXvaRT0NQi49WVikmfAzP8ZIPQ2pS18HpQPAwT1eXO6tXXR9pVH4jR9Up362hpTEyyMoHQC6FS9Jytx6lku3laOatv9KH7ZflL2J0gcDpQOcmKRO0XpplC6D26WmLjWSvkM/fmC/9BSUDgCr/OyH6D6vnRdbeXS9y11bL0b/M46I0gcBpQOcGOn62Vy617X4pU71tpok4aIgnSJGA6UDwCo/89JFdfJcenmHGP2jpw+2ejTsoRtVTpS+CkoHgFXM5+lBdUsapVt5i5cxvpmusyi96p669AYoHQA6UfoOlEtvxOhW0lhz6R3YL30UUDrAEPyxi8v18nH7VafVluttB//Zxc8XuAelA0zDrz/2XO+K/rj9qtNqy/XvKf0FAigdYBreQ+5fzz8y9/ttjzwutxOlf25QOsAQ/KqWLveWtjwhQi9dPXVCr8NR+rLprg9RuoHSAabhD4XehU5b7X5nczXl0Vxo9yt9IUo/AygdYAiqpKutu221u0m7XLXRpBpy6Z8clA4wBNXR1dab2vf7Xtu6W7G7Xv+g0lUaT5TeAKUDTENxdN/jasorK3aJZo+dQ0pfeg9Reg5KB5iGqmr5unZ8XIflLX/rri+buR6rS1/KvZ2FKP0RlA4wDS7s6PM6IbmXgaVYLNdi0/9CLn0hSm+C0gGmQZF3FqXrD1R9VgF6MyKPo9oeVPoSn/qqXSpe1kDpALPwU+buROnhcyxAT5Iu/3zFy2L9hSjdQekA01B93U2mx9nL1a2tjn06Wpe+UJc+OigdYAgsTS5za6zZ+vZKFytp1HW0iLEfoJNLXwWlA0yD1oVq3b+NVedYe5J39HfsxnTMMaUv4dY0FS9jgNIBhqDG3TK2jcsjtZfONflrVH0fHdnjxfD5hbr0DJQOMA3JeiKNy1NV/jFM6xc1NLf/Q3u8KNfO6tEElA4wCz/l79hoXG7ZvHwwo+vyuSOJF0d5GPZ4GQiUDjAE8ndsNFS0LqlbukWD2B4vYpTB9TRZqHhJQOkA06A0S9L8UqmL7kbteRakH82l5/KW48MUUfojKB1gGiwstz26NNZtwtYrDdz/hf3SF6L0FigdYBriVujeKJdeDV+osvb/QDPFH0u8LOHlf4qSS18FpQNMgzydW93/Or1ka428FOZYXXoXeZ3VoxkoHWAawurRpCnd4HcZPErcva7ruNKX2DqcPdoEpQNMQ6g6z1Mvvno0339RdxjtU7r/+5mnXhai9CYoHWAWflZJ58F6/RJT60nK3OPz40dg9FmoS18HpQNMw31VSy+VrrHpvGny4wfVeQhufXLpQ4DSAYZA0s6CdHU1kelbPevsUnp/9f8SPlOX3gKlA0yDUitJRj0Kv46Lpm09kfU+ukcTLxK3zXCq0RCgdIAhkKlbGfU6rW4dJhkWS7GX9+Ftu3Kvs8fLKKB0gCGQtZsZdU+m2x4va2rX4FCULjzbssSGKN1B6QDTYAddeJQe+6Vj/laTxu27ld4/q45TjVZB6QDTEP72zOpe7NQjT6D7hKb3J1625c8Xzh5dBaUDTEM1dX1ClK6m9hWoX03n/bD9bQdZvaI6C7n0IUDpAEMgTyscz8J0jTytYkG7dY5G6fmeAHL7wtmjDVA6wDSE4sTSz/dj1Mj0vbac9HgR41LvKHNONRoIlA4wBOEP0DLIF5FqaNLOV44ey6WvH2Okhj1eVkDpANMQUuW/ssL08tLwl0vbXB5Gvy3xYhYnSh8DlA4wBCFTbpunx7SMhn5skV2/r4ixX+WysMfLGigdYBpi1kXeDrO2hLRl8nBbXuZYxYucrTbC2aM5KB1gGoqiQzxeh6uxu3s8i9IP7sTo+EpScukdUDrANCh57oXpeYY9K1TUrQ+Hixjz5f9iIZeeg9IBpsFKXFqF6fajZI+XRPTHihhziXt3IUpvgNIBpsHq0DWhxubs/Av3utrfuSGAGtc5UXoCSgeYhoegPC1MjwNbWpSF52r3KT3fs6s9zerRBigdYBqa26Frorw8336NAg8jd/zxxItH6qweHQuUDjAEJm6vgCnvOOclitHhPn1kqVFnDWm5qXjJQekA0yCV26Zditktct8QpFvh+sGKF/W8Vl0sROkOSgeYhmrp+uhtmg/fpe/eKdK69yl9OwurRxNQOsA0VE1buaJuW1G6ueLleJSuwFzBObn0EUHpAENgCZd4fJE0HrLsq2fTqdHHf3b16ELFyxooHWAaQiQekizx2It6e5Te2uXFv+1VuifTNRb6QpTeAKUDTIOC9LhrV30rdg+az/fUTQx/SOmydTLm7NFVUDrANFSh94P0kGpfP/tC7fG6dIdTjUYEpQMMwesu3la5NScvO/i+ixe4B6UDzMPr6w/dtbU5u6Xu8r69XxrI7PVbUPr1mddf3//6/n7HK3TLHb+g9AhKB5iH19fi6PJWV+/2nAwuNJDZ779crmbs7qslcbv0AaW3QOkA81As/f6Y0Ot0bTVXBhL1Tf7WyAe3fYkXM3dyxeEL3IPSAeahaFq+lsIj+lK4SeiSeQzTrX+5XHX3e4V1h2dzVLwEUDrAPFRdW5SuNHptg/Utl65RnFc/RunXTq++H4ytngfoJF4yUDrAPBRDm9Sl9drqSyF4vKCRpO5Rup5uT1F629uhS+JlBZQOMA/R3EHn5vcQpYuid1O87jqSsgubemnORQOi9CFA6QBDoGyKcuWrWi9I2J5A10zMsz/kXa6dXmkzn/u0bqL0B1A6wDxI1M1cuk+Ud8vZtWO3lhpdN8bpIvG5JojSBwGlAwyB5dIt+aLPMUq3hEsTeV263p5Sv8ukW1SuPrn0VVA6wDz0o3TNye4eoJemEa3rh9L1tROgS+qdInSi9GFA6QBDUDSd59JDOl1SL6oOaRUzvEn/YlyLub0ntiwxIkrvgNIB5kECzype1NWE1bbUGF1TnpoJEfq2IP1SnX3XdPZ6IUp3UDrAPLwW0rr0kEXXRJB5xSfiF+labfulXwadNy+i9DFA6QBDUCSdrh7VXJxoxeRWkK6BKl7kc72tp3alYpFc+lCgdIAheK1YxYvN3U+YyttBe+h5TXpu9WuWS+/H6Sj9EZQOMA/6D7Qbpb9qIku4mOrVUy49XW7kP3h2I0YSLw1QOsA82E6MsrnNaSImWKRyD9v1SSmV+qQ21/f4r+i26nRONXoApQPMgyoYreLF5jSRLCdym6t3Czl0Nd676lffvz9Tv8jfo01QOsA8bI3So9RvIUw3ud80UE/Ojo139f2vdnKFpUbDgdIBhuD1dVfFS/S4yV0DdWzdqEal0Vi4v/3i79EOKB1gHhSi7614yQ8dvYWOb8SoYeCqe6PDidLXQOkA86BE+t6Kl36QroqXEKO399MV66tHfUjFSxuUDjAPr7bl4o6KF3ErV16Xfk1idPVk+mtSl862XQOC0gGGQDmX3RUvbvd89ahQzG6Wl9/T6nOUPhgoHWAIJPO9FS+RfPJiYbrtsivNV3p7LrIT4yigdIAh6OTSf/QqXnxXF83GuautMsqy6vphZz8X+0rFSwOUDjAPlkvXu9KveBG38lKb7Jd+XS990VQqcPc8iZcMlA4wDzGX7tvoxrk67Xu8yOOaUmN7vHi/PPZ568pREi8roHSAeSimtlx6oviKV7x4tsVPOnJ/WybGPkdtc5z0uKB0gCEI3g6plziK6n8T/RxMfaz43HIuvgNMLu9Wl9WjTVA6wDyEYFxd0fx82xymi4sIdvdT6+R2s3lqdhIvKSgdYB6smKVO1PtHO4h/W0+mq5HjbybwtEZdzfdWQTpLjQYEpQMMge3EWMe2M0CYT1cY6W1/mHrVoqVbkooXv6LpqUtfBaUDzIMqGIPD5XFF6XWyUfHi2RYvfLnJ28KHcT3phgWjsUuU7qB0gHmwKL20mvEqGK94keA99aKOpVmCvtVsiNIpYhwOlA4wBHG/9JhIb1a8FN6MsFL0VrvNipdrUoku9L3rcnLpg4DSAYbgLvb22Lx09dbkzcJ0w4R/cWR13SGhbpmV9BxSjsBIQekA86BEesipZ0Kvj0v8lt5hJ8awd26GvgWf9yJ19ktvg9IB5iHs42JRut4WpW+M0ZVfl6rt6OhrVsWYyHzd7ETpEZQOMA8h51K7auJbk+7t7FZxulS9srzoGr3+nc11TwJKBxgCRemWRM+k/n6Ztteo37NNXdR1x289dTR++PkCd6B0gHmQzGMSPdnjpWLWXrvrd5O4ZVw8dG86PI/aqXhpgdIB5uE+5fKjE6Wr3tGcvSFMj4kX41olH8rT5fH8ig2JFwOlA8xDtbnS6bK3CV2vJ4P00rE4PJbAGN2KF/Z4GQiUDjAEwdpe9eIVL09G6freODtanfBB5ekbVxqh9DVQOsA8SNMKzvtR+vOZdIvSlV/RY7/ITU7Fy1igdIAhCKq2KF3vvVG6uAvCjexsjOBwtauep+LlAZQOMA+2MPRHp+KlfPfcSv/2VUZq4hd96DhcDYmXHJQOMA+NKP1HEqVrfleUHvdy8SOMXPD9XDqJl1FA6QBD8LqLp4N0RelP4fG4uj5gv/QmKB3gnHzZwW0f/SjdrP9lBy9wElA6wImVbsbu3e98/fL0hdJPA0oHGEXpl3LHR12b3h2lf/3y7P31BU4CSgcYRenPUay+I5f+9uVZo5N4OREoHeCsSrcofQs3ovRPDUoHGE3pl/Kqj4Z6juXSi6M3XuVFLv1EoHSAUZQuXffQz54/erRE6R/P2vtD6iRezgNKBxhF6eKinob9XHo/TlcufVOEXn9J4uU8oHSA8ZReuPhQ7d4o/f2qxu5H6LUlSj8TKB1gHKUnMXkavrvCN+bSv8Rcuff1E+rSTwVKBxhH6eJS36b5OGppu0fRtKTd7NdhefP36JlA6QCDKL0fondy6f04vTzSdxqnq8PfoycDpQMMonSpWo161t8TpZePEnVpa1BufaL0U4LSAUZTukXm+Ycng/TykqiTAJ0o/cSgdIBhlO5xuSYsfD8epUvb/v7/R1aPngyUDjCM0qOxXeGHc+mFIPSgdYvf32H16LlA6QAjKX1roL4vSi9fTeheuqhP1KWfDJQOMIjSL88l04/k0sNdG0lcPVaPng6UDjCI0mXx8qQTFzXPRen1m1Ur1kFItZSW1aPnA6UDDKT0S7cSPZKoO7lVly5hl6cVpZcpVo+eDZQOMJDSO1igfihKby0uikPq0k8HSgcYRem+CYAmgsd359LLEzyu+zHFTl36KUHpAKMo3ZC/0y8u7g2nGknf4eWFMNSlnw6UDjCQ0i8dl1+O5NKr77MAvRWlU5d+NlA6wEBKz0QeR0rRJPLOTK8oPdhbXV3UpZ8TlA4wiNJDKt0XF2m6G6WvFbx4lB4VruIXTjU6IygdYBClR1zg/v3pKL1gq0M1rFN3AxIvJwOlA4yj9EvH6xarv+0I01sV6LqVlWGp0RlB6QDjKD1fPNo51cjubl16lkn3442oeDkTKB1gMKULi88975KTR+lfTd6+XvSjIfFyLlA6wChKt61cwti5PBml10mP0evVCNBJvJwNlA4witLlarXWiZbfEaS/yeTyt3weGypezgZKBxhO6ZFLOtWL0vO6dN9OV+PQsCHAyUDpAGMpvZ1wudjcZUcuvfxeKrfT6ixOJ5d+NlA6wChKT8Nxn+lH6bntq8cViev2hj1eTgZKBxhF6QrRNy82elvFg/S84kWRuX8l8XIeUDrAQEoXMeXiHYvS/Q5o4uHP0NiGhij9fKB0gKGUflG7ge1BuuZCCXqjOF1NaTnV6FSgdIBRlJ4nzu3jnoqXm1aPejW6R+16U8R4IlA6wChKF5e1kV7P1aX7Hi+ldydu27+Ls0dPB0oHGEjpl/pYE7uH93hxaceRfkKUfi5QOsBASk8wwff2eEk0bxUvumNiXS1R+rlA6QCjKP2SeNxmd0bpddqyLHrZB6L0s4HSAUZRerpU1F3fr0vPLS9bx0VH7nei9POB0gEGUrrL2zS/P5de5y23Eg83qj2i9HOC0gEGUrq87fjnnRUv7SSLzK7uVypezgZKBxhF6Zd26kXT9v14xUt0uh9HSl36yUDpAKMo3QhaN8fvrnhxhZeu1bt8JUo/HygdYCSlKzzPFX+04iUqXPr2A0k51eh0oHSAkZRu8rbx/v3SCyFKN3nXcR1xqtH5QOkAoyjdLK5jpG22do9UvMQo3cblJko/GygdYBSlF7ppl+0VLwlKryhKj+P6Yo+XE4LSAX47rzu4O4vob1WXrhp9qsM68d8d/LznRR1vxAucBJQOMIbSe9G1fzqg9Jd6fXRrG4a6UPppQOkAgyj9Vq7CLZwuFz+Vu7bvSv/23P3OfQz+orCcKP1TgNIBBlF6ULaGGt9Cd1+U/o0o/XOD0gGGUfrtTuXm9uj8+qqe3vwmSv/soHSAQZR+k7Dlb3s0XxIv354S+jdy6Z8dlA4wiNLfLCw3kWu6zimfsv39t6GJ0j8rKB1gDKXL2/UOaCZMyNU9vlHxMgUoHWAMpcvkHqaXrvoaStXfyl0e7+sn5NI/OSgdYBSlR5EX0n7tWQye9L9Rlz4JKB1gEKXf2knzLMleUOytjvfrm7r0CUDp/2PvDHcbt5komnSxtT/IQb8i+/7PWoMgcj25GlJUlK5qniNZoij/PrgYjSiAkyjdfK0JDZY4L3FL4FZpqVzpS58AlA5wEqVHYes6CekFT+VOvUlf+hSgdICTKN2K6b2QrsJL9ohUiZ2+9ElA6QAnUfpazWVbSnd12+SVvvQ5QOkA36r0X+2j19K1a9iopcfqucbxUSkrMc4CSgc4aUrXRaPjpdm8eA1mrzsp/alB6QAnUXrBknknpRdUN9evQl/6ZKB0gJMoffFe9H4tXbKOXF3wVzpeJgClAxzN+y6le0zvh/SLXG0OF0rx9KU/PSgd4KQpXeQpfbWMroPu0Jc+CSgd4HDU67KdYHDbNRm9bt2LPozdMNTSnxyUDnD+lJ5+30iuLnsu8yspfQ5QOsBJlB5Deiula+A1FxXNo8yppc9BUfr1+gIAp0rprRZ18ahy4xpdT0qfgaL0N5QOcJqULq+nIT30pXtO9wI7b4/OQlE6APwOpf9qpHQNfKyJ2NsS5a45/YE1Xp4dlA5wOKZuP/Y7XvKYvsjtraV0ZXhS+jygdICTFF4spdvroy59++jFuuDriW+PPj8oHeAkSm8X05e4V2xZLl3oWmdS+tNDxwvA4Vi1fDSl5+ulZwsCuNgd1kufADpeAE6W0kPF3EJ61L61uujCl3fhq0YTwKtGACdRerW297VoYBUZc7kIlRfWeJkFlA5wEqWLJet+sdtB4fb9USuk8/bo04PSAX6v0n8lb49ak7rErrP3pAt/OkpKf35QOsDZUrpcrosw0m2Z3L98YdGdlRgnAKUDnETpSyLzOIxTtja6GZ710ucCpQOc9qtGidcXed/VLb0roLMS4zygdIDD6dfPddzQl65587t8LZE7ZZ6UPgUoHeBwehrvd7yUn1l+sYUCJGxzuM9fWePl+UHpAIcjies0Vktf8lbGoPrGai7+wJSVGCcApQOc5PFoVnCJ1xEl8S5XVmKcAZQOcBKlx5TuIV11F10piSen+HIptfSnB6UDnETpYjGTC91X4WVbRuft0RlA6QAnUfpS98Viepms96LVsxL6Vb8r3x6dCZQOcBKli8ULLmJJv2oU5e5ceXv0+UHpACdRelpL14zdbr03qk5G3h6dB5QOcBKlt0L6Eu7owj5kVEdWQqfjZRJQOsDvVPqvfkovQ1k9hHX79qhnc3Hl26PPD0oHOFtKl72D2jWW4qOxjdDMSEqfAZQOcDiNUG7HtONFhE4X73jRrxw0jFx5e3QGUDrA4SQGH0vpi3YP6XlfuoQeXzYipc8BSgc4SeEl1tIjSwzs3vGiQ8KVrxpNAUoHOInSPaSb5r3jZSOk9FlA6QAN3nfxtoNlFz938AJPDEoHOInSXz+2tV1D/QulA0oHGOD9f+/jOykdVkHpAA2eLKW/Lkv5WSbXRN30N5QOKB1gO+8ld5fDtoGUfu3v5VfHyyKp93n9SOm3gf3+Q+lPDkoHaCq9ynpoUCw9iGRuJXOFdt2llg4oHWBPLX3c6m/bUE6/s6jc0uCVWjqgdIC9VFWX4/aBfN36RbMHbceKuSbj/dFaeqm+oPTnBqUD9GrpQ+zteFE1RbzGs/1hpJZOSp8DlA7Qr6XXvZ7aM3eUwTvnqx6QPprbK+caxPsjER2lzwBKB2jX0g2bsxlZu3cWy9JI6ffN79PECCgdYAgJW4m8EGd0WTtettpcVw/ebqb00KlOLR1QOsB2pOkQyn0mDCTtDlcNkpQudH+8lk5KnwaUDtAgals/n/EmRlXL03MZWV+6UrgSeTnZXWrpgNIBtiNrS+F1ZDO6lKq38+DvjHh7pPBCx8s0oHSA49d4UQLPzxqVo1xtq7vE/kaNqaUDSgcYU/paTtdYM7bGS9PmXnkJz0WNV7n8cUwtHVA6wHb82afGYSbc6NvceY0Kj/t6SqcvHVA6wJ6+dH8kajld0wMdLzqHhQAi7nIW1wWUDjCORG0yl9CtTb3d76JBLLwIldEPS+k3aulzgNIBGpjLNQp9LhGZ2tGdOK6aLhKPaNIrMcXTvZ2UPhEoHaBB0LWFdM1rytZLT2voMairwmKNLpoTAymdx6MzgdIBGlhNRfbWtDlfou51M2ocdC5xB9QTM15Lv6H0KUDpAA0k9Bz/T6vcEjWv2WBzGybPTUvhhb50QOkAg4UXz+f5yl1F1crpZnbjaildQ8vptrhu94Oj1NLnAaUDNJCrNbKxPSl1eV9t6qpDM6VL35obX1z3Rl/6JKB0gAbWfB7G8aS7lsGt8OIsSzula7JMK6Xf6EsHlA4w/u1RF7sv4FVQ/i4/87tu61qazlK6JsWmhE4tfSJQOsD2JkazubCOFxHt7VzTlC504bX0W2MnpU8GSgdosNp2rlOy7q5MHVWuaw3bHS96jVSDUEu/UUsHlA6wkU1rdUnqleS1Ir/SddLx4sT1GrfYnJQ+EygdoIE9EA0TcV5TWT+6jiHHXy2lx2Beh7ot5cvZDW7U0ucBpQM08E6XENXDheTuK6IbNvng8uZajNHucvX6TsfLbKB0gAYxl8dxuv5LXnhRMLeb1vGiPcyFvkb60gGlA+z6qpGGIpRfdNNNrrGIbrdELuR1u5apE26k9LlA6QANwnujOkSTW1j3ZH7trvmi2nkI6LK3p3a9PXqjlg4oHWDfsl1eSJfkC4nF63T52Q2L562U/nEpZd985+3RCUHpAA3W1K25iP6TLYoufFkvudv3z2sySusbqujU0qcCpQM0sE9Ju8FN9rHwonDus4+89lO6z3dq6TdS+nSgdIAG/nlRV7gTc7hoLfnyOYn7Mum6UFaXum/U0gGlA7QJHs8K6XZ66z4P9TeQJG9Dt6xF/bO6tdPxMicoHaCBd53rmOMdL/3MHvStc75wen+99Bt96fOB0gEG3h4VSuZ+Mmmni+tqMqzKVU/R5kK3FMpzbqT0iUDpAA1kby+k54TSihlcA132U7rmFNKt8GIXN749OhkoHaCBu7tXSM+bGM3yYcLq5UIBXtSr6Os0s99I6bOA0gEaJBm9gyk7bV3UZIzhHsk1pxzfraXrSC19ElA6wMCCABsK6Xcyi+van5jK3NXWQmq3lJ7ncr49OicoHaCBQrrldUOyz75T53LX8VMGt0sL7uUQLZ6r/UYtfRJQOkCDKGv9Gjn9ThbQNeOzS6Sf0suhtY7ujY6XCUHpAA1M5JuQvXsfM9K8InnZ81q6pXT3dpyklj4TKB2ggWTuKwLkOV2qFjZlhZcMadxTfFW1G/xGx8ucoHSABu+7eNtBTeZrOb2iK015Lm9yQ+nPDkoHaPDH//+ou0b9/XJZLvff42Yzn/bl7128AKB0gAGl160cNm6Xou9AmHGK0v/SL46016t6QumA0gEGkKbLYeMmUesQZuJe5j40rnMcxT+Q0gGlA4wikw+m9MWEHmaMxXT9l0b6Ba2jdEDpACOEfF6GW87K3pbQ05guTcvmGulWcDxKB5QOMFxLH03phryesMjXXnSR4Xk8CigdYDchoW/2e62ylF2jMGN7FLg/I5Xxy07hBVA6wCiu64bkVzpeNLKZrOPFKy11miZGQOkAX8IcvsnqIZTf0anu3Y4XP8VuRpoYAaUDjPKu14dSt7f70oPBHf0piDscy4mUDigd4Ohaen/7VEuPdq/7shLTJe5M6uWg6gwdL4DSAcZIS+jNGyF+L7K5WCymp68YxWn60gGlA3zD41FrR9emtpZCGGgc91Av10gCD2an8AIoHWAYCVujflKvypbCNVJyjyxytjelW4s6a7wASgc4tokxt3swtns963iJyVwja1bn8SigdICvKX2gmh5eKJLZldGdpVU/l8qle2rpgNIBBnFr+8BLMvaKUXhG2lvjRQr3TnWN6XgBlA7wtb50E/z6bHS4LhosIYVbJNdBZwovgNIBDq2l++YpXdUW70rXnjcwasirRoDSAQ6upWvXdLOWvmxZ40XZu/mcVKUZOl4ApQOMMfKSka6jrOuh3/Hi/l7xej1SeAGUDjDKjqV1VUvX01AL6cYSn4ba1ceAD9UBSgfYr3TTeN/uQeHB6kvnq0a+0osuNcWCAIDSAXbQfcPIdi3bldXSl7zjRfKuaGhCJ6UDSgcY47PFt9VevOFFXq9H73gR9qBUl3I+j0cBpQMMklRZOsX0ize8mNCTNV4kb0/tdURfOqB0gF2YwDd53RteXPBpx4uCuc/UIW+PAkoH2IGXWpL2xXCWwy2V26V1vNijUY11g1o6oHSAYUbiuTZJezWVr3/VSNoWrnM+gQEoHeCQWnq0ecPtweEatFhCiSVdJF0j+tIBpQMckNIzs+sUJK5z2H2NF6+i+zuj9KUDSgfYjWTd2cIpSFxn4ROLa7vsQe/U0gGlA3yBRN2dzUK6Nbj4hHtbbq8TuklfOqB0gHGa3x1NDd/4QF2a2kO3i+m7eF1j3h4FlA4wTl5n8aE0b+Fco7S0njS6WO2lnknpgNIBRmmWW9K4bjbXQFeRxddIF8rv9x+fkwaUDrCPhrsb2d3iuJXOvenFonjmeD4nDSgdYB8SdVS4DbKUrqGQ0MXiApfDfQ0vUjqgdIBj+tLTS0/pNtJ1mPKULrGXn0ueWjqgdIAxvOs8DesPZynb8rqFdK3EaJ3nZvh6SUoHlA6wB7P3phZ1xe+g7lYp/eJfo8uW2a1DVmIElA4wRondw0t3JWvrhknvePFwruuocjpeAKUD7GCDzVcSvHWg158X1jVlZXK/Vkyn4wVQOsA4LZvnt5S975shr2uqdLzYYgC6Ds0wpHRA6QB7yNbV1XzY6h4CucYrzS6aCrUVL54XNEHHC6B0gGFaay7m28VxwYsyU2XtKJzXH7V0QOkAB9XSfXO/y9wxnJdT0qQuYWtXbvf3jVjjBVA6wBjv3e8YrQ4tnHuPunWpZwndszp96YDSAXbRXM0lTewriy7qrLlwR9E8/DR6jOwsrgsoHWCc9npd/Vr6kn1W2lrXLZmvCb3AJzAApQPsoiHu5uK63vKSxvRKQ96aUr2dwgugdIBRWm8V5cOL43WYaPbF+9BjKUaTLNsFKB1gF/J4L6n7V43U8uJe92ZGf8FIWHM6TYyA0gHGcX9rkMs95vNWSJfc/94Ka7wASgd4efnx54/hfdnF6w5+3m6Fn/etHCKa0N376AUApcOcjBv9z6L0y8dBA51svFfpH9zqoaJZv0DpgNJhVoqjR7a71eXp++FSB/FUDxeNd6b0j00HbfG6nkjpgNJhWvak9IGQroldSlc6r79y0rFOhlukdEDpMC1fqqVnXteM7u5SutK5nZXSdaeOXgBQOszJ3dHDm1VVLKHXXeP9KV3x3NJ6vRd3Ci+A0mFedoT0HybwR5OLeLk7pSuE21AT2nk8Cigd5sWd3d/la+eiPc58KaXL1xrK6nGn8AIoHaZlsOiix6Pqbyk/WdzsfnxKr2NSOqB0gMCPkrwHQnpN6dJ6+SUhXZM7lW6+tgeln+5SSweUDhNTk3cVdsvm+ov6z83b+dQXOl7SlO4XdLwASoeZqcFbYk83/eWxTn4J6r6EXTMHpnRXua5J6YDSYW5k8bq3fvV/HzavA52F3brsTOke032nlg4oHUCFl4+9v+nxqE6K5Nrjra/1pWtvDOl4AZQO02OFlw0xffHXiqRuoVvl8IWUHvO4R3MdbizbBSgdJuYhm3eDulK6WTwL6aq7fKWW3qu96MCyXYDSYWYUzlcq6tqD1FOPf1PHiyV1jeRxFgQAlA4Qonk4BZ3rrDVezOPf1/Hij0LjhC5ZiRFQOkxM0noeSjBxTuul92O6zrtTevJakR/KiZQOKB1mxhvSH3f5XDet40Uc3vFiS7po16HqnpQOKB2mR+G7/uplltWt40V7s+Pl8p0pvRyppQNKh+mplo4p3RsbNb2v42V/X3qyRJdGdUhKB5QO8JjIXeVlYLLf1fFyeEr3ISkdUDpMjiQue9tc2TWjkN7M6Yesly5Xe0rXkI4XQOkAd4K0/UFpmI3fHr2MxPTvT+l0vABKB5C0pWzL6eU43PFyVErPO16kelI6oHQApfT72U9hWC7GO16+LaWrj5HPSQNKByis6lwDib0ehjteLkd91agctJPSAaUDmNLzLxrF7cHvv6vjZW0npQNKB/AmRu1tww+s8XJsSnebk9IBpQMEXNprho9PT6vQN8V0jUnpsAJKBzgSedtH2fovS2UkpJPSYR2UDnAgK3WXENg1p1nVXfqldGrp0ASlA/w7hRdL6CGlb+x40SwpHYRA6QBH8mDzrPASbV9fNaLjBf47oHSYBmVwU7kmpPtyLqKm4wX+M6B0mAal8Ozro/74VKbuxnRq6dAGpQMcibJ3PGuz/D7Y8UJKhwYoHeBIzNi69uk6uzWjV6HTlw4NUDrAgfgKuvK3BjHDb6ukC/rSIQWlAxxJ+hTUQrr0ruhdBt2YTi0dclA6wIH4w8/+2IzdLqbTlw45KB3gSH64tJM+de9Lr9DxAicHpcM0xPzt1fO1WvtyeQzpdLzA2UHpMA3R3hrp0g1fVL29lE5KhxyUDnAkEreJPVx+qeOFlA4ZKB3gSD4tt2gjzUjrEvbWmH4hpUMCSgc4/vFo3DyoN1J6v5h+h750WAelAxyJLZ3rJXRNKKUHYecxXaInpcM6KB3gQNa+Jq0Zb2BUSu+GdFI6nASUDtMgkWtrfrzufliCs9uldN3/l1L6/fACgNJhTmI0L2hG8Tw8MH20eT+kfyWlR1X/9KPdulF4AZQOz8A/7J3Rkts2EkWnarcsr1FKUo7y/7+6NgKr03PZIIGpWA3jHFIkSMrzeHyr1QT+N8WXCW5T/D7BGwBKhz35mUovt/qph3ZuF7a7JygdAlA6wOtTuinbrO0QqaN0OASlA7xY6abvTkh3uqfwAhEoHSBHSvfaVorW0h9XDygdUDrszU9U+mFM191dld/HeKB0QOmwMT9P6SbzPoWOF0gBSocFeUlKv5Vgrx/33CXw7gilA0qH7XlFLb3EAV2eN1k/ejInpQNKB3hZx0tcRtfno4X0B0oHlA778qKUXq7G9ENx64iUDigd4AW19EZcTPePvc0PZM7Po4DSAV6h9LiYrq7XvnQ6XsBA6QCpUnoJdknpiiZ1q6SjdEDpsDOpOl4q3Vr6g5QO30HpAJk6Xs5CevlxrSZ/UEuHN5QOsHhKF3mr2GliBJQOe5O2lt6uxOUBTNsFKB0gbcdLaRfibM3lFF4ApQMsk9LN2wcXzPECKB0gfy29SEpXnz/oeAGUDrBCx0v7Utff9oifRwGlAyRO6e1b74StA34eBZQOsEAtvbectNbXKbwASgfI2vHS9ttRGOftUUDpAAumdKulKyyBASgdYJFaet1tJsZ68vrWK5aTBpQOm5O046VSNKWHcielA0oHyJzSK+dlF2rpgNIBFqilP1M6S2DAO1A6wHIdL64vXQouWnuhlg4oHTYncUqvV916C8tJA0oHWK+WHgr8QRMjoHSABTteHsyXDk9QOsBqKb1+7docAEzbBSgdIHct/Xa2qhFzvABKB1it48Ww6jnLSQNKB1grpZdvW+d9UR0/UDqgdNiaxLX0yu8CqxrB2xtKB1it46V8/4jDQx4oHVA67E7qlF7s7VFRt17z9iigdNidvLX0Uo+xuR+8PQooHWCRjpc2PGldpJYOKB1ggZTextHq0R46XgClAySupR+k9AevGsEPUDrAUh0vP8YHJn/Ypw2YEABQOkD+lP7PvnSWwAADpQOsVEtvF0OrGj1QOqB02JycHS+Gc7WrsrCcNKB0gCVSeh3UTxzIrabOq0aA0gHy1tLbgFo6RKB0gHU6Xp4Dt6oRSocnKB1gtZReR1ZcsYKLGv7BtF2A0gF+stKNKKEXk3qhiRFCUDrAIfcpbhN8meKv3w63H4fv2N128QaA0mF9/pzY7p9nthqhBw9fpvhtgjcAlA57cq+OrvvAedjnNaXfR3dL6SMbSgeUDr8CMym9ivrb5+r579NtzOekdFgQlA4LUj193ertqmp6hDJXS7+T0uEQlA4bMFdLv1psqYN20SxtrSrhyC7G6y6kdIhA6QCHPJ19LnW7uFtFpdIfzXe8UEuHAJQOGzCV0s3lcc3FnrZTNXY/m0vvuRVTLnMnpcMxKB3gkGZqb29vc5P583Oxfu6wYsq1sgspHWJQOmzAVEo3U3uB332xxctd3/rUkY/pdLzAaqB0WBCzddvcWGrsbRDlcT/yMX2o7tKiPCkdjkHpsAFzKd3n8rB87p76AF45GrmvVUdfLruQ0qEHSgcIU7plc1O4jY+eugAeiv1W6HiBdUHp0GGBlF73qILu6+1m7xKVXaTGPtrvcqfjBUJQOkCc0sXeWkH3Cf52FNOLG3lK63i5XHghpUMPlA4bMJ/SLaNLQBezn6Z0H9QLMzHCmqB0WJD7Z9nspA3q7VhuvVq6uL4OLaBfgJkYoQtKhx0YD+lvVdvtYLu0MtrNOuyGdLsjc7w07qc7KR26oHSAbkrXmV7c2OtdOl7qZgp/HgxmYoTVQOnQIWdI//PN53Db3MF1On4/9WvpxR/b7uL5CczECH1QOsAhksv96Ujy344ugft4rm5viLDjnb50OAGlwwZMp/Tmc5073bvd9O8SuMbzerB7dS9DkwEwEyO8AlX6589vAAtxF2N7ycsT+3m0IfE8mObF4vkFmIkRXoEq/Y7S4ZikKd13LWrJ5Ti/+5Cu8bxI18tIxwt96ZCBqnSAtTBvuywuMvfFGWk6f16Kyac6Xu71QEqHCJQOOzDdl64vG9lm0je9q7TbpYjcyu3S8NLlTi0dOqB0gEPM2/axS+97e3Y7iemqezpeYDVQOnTIGdJbx4sEc+l50bVHtZhe3KkxP8fLnVo69KDjBUCptpZuRVG7PaonsbaMVe6Sws90zqpG0IGOF/jlmUrpPobLXje5E4d0l9YbuvYoHS+QH141ggWRcsvT45bJpaAuKd2uS1hQHyy70PECHVA6bMBMSm/SlgK6HZ3y260SdbzYSdz+PpvHMBMjnIHSAU5Tejt5n3vlt7O8TCTLHKnxvcdP6i7U0qELSocNmEnpOomLnrVbvUSvj9od7Uu/zJ2OFzgBpQMcIhMxts2f3jfF3AzzuQ0Pp92VaB7D2qNwAkqHDZhK6ToRozlemhd/bDaXi/rcq9xyvGi8V3dhJkbogtIBDmnKFmnb/i6l16M5W3ze0BeOBgovzMQIJ6B02ID5lO56XaRrUasx1dHBfOnFid2+ItGcjhdIDUqHBXHN6PWobtefT6UDXdczsuuGeLxXeGEmRuiC0mEDZlO6ZXAb+wqMNDGWuBXdhfTDt0eZiRFWAKXDgvwQuO2uvcU2J3VnblntQgYVyeaCPWcmRuiD0mEHZudLlyRuFj9eftSXye1KY7qp/sDkd92ZiRGygNJhQbQJXSUugv/caUvXmN7QNB7A26OQApQOHXKG9D/fLIbLLnq3O9XUwcujPqVbc/pY4eVOxwt0QOkAh0iDolZddJbGoC/dLjWkl4sdL8adWjqEoHTYgY+uPWpjV1jXioy882/VFnX9yKpGXuqkdAhA6QBxShdvt03fG21XLpS7mB6XZDSaC/YNOl6gC0qHDfhALd3rO/59tB2czA/fG9X+RtV4v+5CLR1iUDpAlNI1lGs93dXUJaXL7C4uvLericILKR0CUDpswHRKt4+k9brJj6XN3U7efiRhvRzl8rjywhwv0AOlA5ykdJfHpRjjLa+L0anOS0vosqqRQccLJAalQ4+cMb11vNSj/iSqS0q3a1G5dKLL4/JlBGZihC4oHTZgRn9W8G4E73/ac1v8QmO6/mvjP9f45C/fAA5A6bABM0qXyc6F2NKa0uU/iGJ71fX55r+G0uEQlA4bMKl0fZm/PIdSIfcPtD1dri2lfyKlw0qgdIhJrPRmZknqYmt3lPRuQ3dte7W1ZHLZ7TukdAhB6bABc0rXlz9V1vGDIt73l4ZEcLuhxzoipUMESocNmFJ6OflBVBYXtbGO7Nsa06ujNZPr0Z6R0iEApcMGfKyWrmm8yIUfa9FFUrukdFH4Jzl++5DSoQ9Khw2YVHqxac19Pn/eDSi9X0bjlN49tg8pHbqgdNiAD6Z0aWmR2kuxB1pUt91uaErXTC7H+oyUDj1QOmzAxzpeTM4id3n3XwdzKV0EX++T0uEMlA4b8LGOF3F02IwuMd3LO+xLv1Z6qd+jlg5dUDpswHTHiztUF6vP45Quz6O+dEnmgdY/kdLhBJQOG/DxWrrJ2pfMvZ81m3t9Rym9bhc6XkjpcAZKhw2YraVrEd1wyV1DugzjmK4vF5HSITMoHWISK93c6xoaw5gepPTid43p9sJ/3PFCSoc8oHSIyax059649UW8bgMhSOmfrnW8tCEpHUJQOmzAnNJFvrI0kcRujemXaukm9e7RhqR0CEDpsAGTtfS6BRFb7kUpvZx3vBhXOl5I6dABpcMGzKd0qYN3e9E1pMd/wrBJc690vHwipUMHlA4bMF9L74d08XqU4vu19IaJnZQOmUHpEJNZ6VYK9zoPbl7rS487Xkzs1NIhMygdYhIrvZito/5F1bY6/nyOFyuqXOt4YaE6CEHpsAEfSOmq69M6Swn13e94MWn3UzoL1UEMSocNmK+lq677LYtxG0zc8WK6viR0Ujp0QOmwAdMp/UpIt5E4Puqa8TRPW0qn4wVSg9IhJrHSz0K6XcUh3S7cLbdXT5uu6XiB5KB0iEms9NNSuiApXQzu0ZReh7w9CqlB6RCTV+lNzae19OC+nTSk+91aWeqBOV4gOSgdYvIq/aMxXaVvD6KOl0+kdMgPSoeYzEq/VkwPU3oJJliXWrqZmlo6LABKh5jMSr/W8VI6IT3wvce9M0rHC6QHpUNMYqVfC+lxW3oJdC996TazC33psAAoHWISK/28lG5DTeni7rCt0Ymbt0chPSgdYvIq3dQ8EdOjUno7aC3dulqY4wWSg9IhJq/SB2K63o/XRKqHQscLrAtKh5jMSr9eTC/hNIsa0uWvvZM2qxpBclA6xGRW+kjHS5H7qnfv/LDjhVWNIDcoHWISK30spHth2zc99kdljheTNn3pkBqUDjGJlT5QSrcb5vju26Ml7HipJ2rpkBiUDjF5lT7Q8WI3pAZz3vPiO17aiTleIC8oHWLyKn08pvt/0knpcceL2ZyUDllB6RCTWemjxfRiV3FMj9cefZ/SeXsUcoLSISaz0iszIT0upp/P8WIXQccLb49CB5QOG/BTOl7KrcjNEtXS/RwvpHRYCZQOMYmVPlxKl3uq73qQlE4tHVYCpUNMXqWPd7yIz/uV9Pa36HiBxUDpEJNX6aMx3UK5FlikB4aOF1gXlA4xmZU+//poO3iCyRrDjhfeHoWcoHSIyaz02TleopguX+l3vDDHC+QEpUNMYqXPh3Q7dkP6c44XUjqsBEqHmMRKHy6lt/t2z+2a0ul4gSVB6RCTV+ljHS92Gsa3spi2WdUIcoLSQZjnrwm+/Hd8G+l4sdMfX8e3N4ClQOnwYqV/d3Td63ZtXAaK6fbdrxNOfwNYCpQOWVK6SbuOevcHOl4aLaUP7aR0WA+UDq9O6U7ZNtb7dpgJ6aR02AGUDjlSupx0YNtMKb2M19JROiwHSodXK90F8HpyZ/F6VfrMHC+DRRdSOiwISoccKb2zaQ3mVuh4AUDpkFHp/zC2jS2hHxVfBuZ4sTO1dNgAlA5ZUvpzEP1UavfGO17KXMcLSofFQOnweqWH7rY73vRDIb1+KLzAHqB0SJTSpYbuhnYY6HhpHwovsAcoHRL1pdvYhXQpw4zM8WKM1VxoYoQVQemQI6U7r3dju/WlX4rpvGoEO4HSIUfHy2lI9x0v5XJKL1OvGtGXDmuC0iFNSr/eoN6cPTjHy0jBhZ9HYU1QOuRJ6X+fddeU3hgK6UwIABuA0iFVSm+n+F7dZX3/81I6tXTYApQOiVJ6O4jPbZeUPtLxwhwv8MuD0iFVSncXYTX9Nh7Tp/rSqaXDaqB0SJXSe/F8JqWb1Idq6RReYFFQOuRN6eFcjFXS/2bHy7eNjhdYEZQOKVO6XLlrEXYvpNedJTBgD1A6JEzpbQsfiLEvpvSLG33psCwoHbKk9DCe68ukZaCWbrevl114exRWBaVDjpQugdwsro9v2u9yHtPpeIENQOmQI6VLn4uN9Foi+nnHS2l96Vc3Ol5gSVA65EnpLorbWK/V4XFIt4uvg5UXaumwHigdsqxqpKXzNla3D7WltwsmBIAdQOmQNKWb2VX6+vZov5TOQnWwCygdkqxqpAX0YBvseLG7X1nVCH55UDpkSumm8u6rR9c7XoxCSocNQOnwaqVHLtdxd7508bsZn8l1YRtQOqT4edTkHbjcPT8qpRcN6ZrSR3eUDouB0uHFSj8P6drzcguQUrrt/DwKW4DSIU8tXWweLYZxaOzSS+kUXmAPUDokKbzUQ5jTz+dLF5uL9f+g4wV+eVA6JCm8XIvp1pcuHS/FFV1I6bAlKB0S9KXHkwHondaXLhPqnhfTr5ucmRhhVVA6JEnp4nJN7c+RWLtdakifWtWI+dJhWVA65Ph59Cyku4fmb6OchXRWNYINQOmQ5OfRyOxHed38Hc7xIhRq6bABKB3SpPTOmtKS0gWxuyr/j4GqC7V0WBOUDmlS+tPY8Qp17ao7EaO/w6pGsBUoHbLM8fLPTU7+6fkcL6L8sWm7KLz8n72z3XEkV47obAOyrkXJMKB9/2f1vQShQG4wWcWypqeoPmeqS/zQ7s9AIJRMwqIg6XCa4MVSdS9sPNbjpe3ORS5UvMCKIOlwjrtH9S+5ifT/1+PlSsUL/AiQdDi3S9dk1InR1Twyd1EddemwLEg6nObn0aDeVru4x6WPK172xy6cHoVVQdLhPKdHTb0zm349YtMJXuAHgKTDeXq8RA3XY5vXQ2H6VORCxQssCZIOJ3Hp7cNFPL171J9xxcvuyIW6dFgWJB3O8fOomnKZivv6EZNe6MQIPwAkHU7x82gu4740W/Eyf3qU4AVWBUmHU5weHYTptnYoSy/7K174eRTWBUmHN/J1gOsRDtn0+wF+ASwFkg5nkPQilY5Tvfzw/9ilu9rf75d9z2uIpMNqIOnwhyVdet3Q1EQ9LPrTiFOt3itVs7NBe4vnL4CVQNLhBC5dAp7pubt4x5U8yn1V60t9pwPN6j9cOiwGkg6ncellp0sfm/T8riPZ74Qm6GTpsC5IOpwlS7+Os3RpdZsZZcOmN9GOT/z8D2TpsDBIOpzDpbd3Ttl06b4ZkWa3T19oyq5Y/RfAUiDpcBqXnhYmlu2KF+3n0t8Nz+3zohfBCywHkg7ncOllbM+3K15EXBR3w2U9vPh5FJYDSYezVLyYSBfJ8qjixfcTeW/WXC9LXXDpsDpIOpzDpadI2YdZ+hGXXpXdPtsfdemwIkg6nKMhQOk9SWmiFsUOdb9Hk564dE0JXmA9kHQ4gUsvwxS9PhMuXWuDuvRuCWNI1ilihAVB0uHULr29rQRG+H5+etSDdI9iJOscNYL1QNLhBC59p03PK17EuMeL6J440g4uHdYESYffJOl/b70bJsSZH9fiOIgZdWL0IF2Df7R6waXDiiDpcIqKl7LZGd1Xt/b+iTVzqU+MYi56UZcOC4Kkw1nq0vea9KLVkcD7clRv1bcIrV+oS4clQdLhFC49K0yUsu926elylG8Zc4vS68PpUVgRJB3ex/O9p0eDoJt5P+jSFaanUXqb4NJhQZB0OIVLL+Pmi+OKl+ksXcmKVzXWMbcawaIg6fBGVOuyn+HxIQ3Capk36S148TBdRPfO6VFYESQdTlKXXlKbPm7Htb9GxmTc77+Qe+dWI1gSJB3OcXo0cendXoxamWqzGw14nUWie+fuUVgQJB3O69LLddalj3u8mJBf2r/2iu4dlw4LgqTDaVx6z21rZBUv0312vV+XsMpGGgLAkiDp8K2S7j+gDhy3C7tXvIhNB6/fP4O4R5+uQJ27R2FBkHR4Iybd3Xdkq3bFw/Q8Lx8HNF6BHgjNXbjVCNYESYfzZOnJMVDf1sqUS1dyXtHcbr/g7lFYFCQdTpSldwW52G4Jc3/GLv0i1fZqlzrg7lFYFiQd3oil5ZMuvafH0y49lXfVnmtgNekV7h6FVUHS4Vwu3eXYTHnc8yeiVcl5GEjcNbhw9yisCZIO583StRr2i/YMl3mtSretU7qr/IXTo7AiSDqcyaWX8BjS8y2TLrRq99DlLRgvnB6FNUHS4U9J+t+7Kl780U5CSc4sRXde8dOkuHRYGiQd1nLpQdfnbLpKz9u79yOponROj8KCIOmwQJauJ2wlZAofzhNZ00WTeU6PwoIg6fA+nm+ueMkFe86lt2Vl5CpD74bpuHRYFiQdvsmlZ10Bxk23/NHeXJYuly4GLRjplw5LgqTDGxnJ+LHTo06p/6ZMeltX1NK0ux+ttwkVL7AiSDq8EYm4Poa4S99d8TLv0s2khxTGr6rDpcN6IOlwpoqXqMldFKTPV7xcvKWuULheN+mXDiuCpMOpKl529ORq75SsRsYqXioxgpHSU/ECS4Kkw+lc+g6TXjKHXjeSEhmvSzeXLi50YoQVQdLhZC5dHHXpeY8Xibp8uJ44oV86rAiSDidz6WXTpieCPwzS/fSohF0fYReXDguCpMN5XXpu00cHkezbVpduNS51rk1uNYJlQdJhUZduGXrbyrOb0AJAA69npIgRlgVJhz8j6X+/P0sverUn4hmLHLmfNKKIEVYESYeTufR5k64vj688ul8saulWNOLSYV2QdHgjW6Zcb+FOfC5KdzHXdyOSb7vcqN/q5cLdo7AaSDqczqXP2HTP0EsazIefRqO8iwttu2BlkHTocjnEX3/9VZKnvuq7ouF1Pky3b+kVP+O3gpxf2ju28pJ75zppWBIkHd4q6ZVib82axJeX2PfEd8etRi7xxQrX9R27e1SYTeeiOlgYJB3eKOk9R661+mGYGx935qpY4K6hLcbTo3o0DBOtXqh4gfVA0iGT9P+af0YmvdHsuaT/mrD36tGOyGdZutMEPUKWDuuCpMM7XbqE3E36ayXMSuk58bIZpReLaZJQRoS7L9qjbP21SZYOC4Okw7uzdKUsylok6u3R8tUpejtaj/q/XfJi9jw5REqWDuuCpEOXmqPMvOqfjLlQzhJWX1+9JpXnuU2PQu7uPOuzqwy9c6xIT32RpcOaIOnQZVLPG02r099DS8+ll8SGjztzJSZdg9yle5cub/WCS4c1QdLhncGLKO1Dj/v0tOJl4r5ouXIN9AooKw/S7Vl6heukYUWQdHiDpKviRXl5e4kkTc/7bw2QSXd7rlWveIl9FntjZTK4dFgQJB2yLF3P9qgR7Hn06C7zbdltuAS5/rPH4xbJu7+l91Gv2yC9YpqL6mBFkHR4X/CSu3SJukS+MXDiYyT/WkhNuooYk1tG3ahzBQYsCJIOXWKqMhhp7lm6Dv43NJK0l+GVc5rq0XaSwUjp3aW7Q1eYrnVcOiwKkg5dYjVLOlKMroYAClpE29Bo5NJF2bp71Dek+p6luyFX3CLo8QILg6RDlyDZje1R59fQsUvPe7yoND1m6hUbWQajNXGv2AHStmjrF/qlw3og6ZBJ+lz2IpcePbn025P0OnUvXiwQF5a5+KeLf3tiDXpUc0G/dFgZJB2yipfdeq7oJVpxybt7dC2b8pq8Zzpt+2bTI3aN9EUrzZZzqxEsDpIOXSTWmZ5rXwQz3lNwL0s3l95PXkQc63uaZi5d6u2XYXCrEXwGSDp0MSNuI6H1UMriDQDqtFHUiTFt4aKh9uM4PTWqNSFB37pJWkdJfwEsBZIO03XpbtBjxYsTdT02aLSkpfRiF+H74wYx0n+rdNHnJazj0mFZkHQYZen17SMRJ9bXJa1L17J5dLfp5uM1zK888sXQEb1ysVJ16Tp16bAiSDp0yX8W1YctJS5dKq+hNgYnQktSfp5S9O3i/88g41L3LEzn9CgsCJIOXUywk+hFQ3fp7dNdelg3C26Jurn0kjxB2X1RLRjTHgD6Bm27YEmQdOjiSu4K7uRZeuLS7e7R3GSP8XOjnqV7QYtfK13fNNeFZUHSoYs03LPzGLfoTy69WKA+dulBeX1h26ZbHWNa8dK02sQ9NFCnuS6sCpIOXdyj2/CYS/csvXiBipgK0/3IaWj61euU7mm6hlxUB+uBpMOOLF2OXIta1Vq4schbeGlQpOyu3G7TvXLdn+3fVV8R+UWP0JqkntOjsBpIOnRR7hKIKxauy4SL2Cfds3TLV0Yn+32abCWnR8XFlVzunLp0WBUkHSaDFxWnO8rK4+M3j5pLt6OjmS0fm3QlLS794efQMPLi9As9XmBJkHToIv1uT5sE7ASStDriMq/FeEq0uN/2yX6XXkanR6Og+yYuHdYDSYcu0m9X8PwQqeTbyl5E+EYLXqzcJTfmO7L00o9rQkd0b+Gl3brGz6OwIkg6dHFbrkm+JqmO+PkjrUb59cQkv9nCKeFld48GLnEQdy5k6bAmSDp08WhFU5t7lu4xi9NWJcJBjJMsvTGK0vO7R4NND3497tQljhrBiiDp0EVaPqx3Ud6uLL2+Uo/eBhr17yXSkpt0zSNlV5buxtxtOi4dVgVJhy4u3+7bnXDlqAJ1EWdW8ZKXvHha7s/Oihe/gFTj0OaFtl2wHkg6dElKWjYq0+3KUQthPFe3Xz271txHTtmsS1fMIjrFLmTpsCxIOoyb6054dXPp+mhoLlyPi2fpNspN+qjHi/fWvXQn9YN+6bAgSDp0kSXXS2gWs3T58PChGCZO/fRoLzJxF+9oUy/Tf+vJJQW3yYV+6bAkSDp0uYiJ/l2xPZdmwrunWw2LNDmNZLZbMW679PZIysMWR41gTZB0yCTdjbotWRGjfLiZdE1jrG7aa1Y9ivlcli7F13XSPQG3yQWXDiuCpEOXyx7sXlJz6UVzm7aRWW+vQZzI0lXx4rcaJZ11g2fXhLtHYUWQdOji9S15mL7t0iXgPklaLcbFYgOj9Fx6UHzT70ZowthGXIEBa4KkQ5dowRWyaKaRdoNcl9A4feDSS+LStaDJfMWLNqTUsTi9c5aUi+pgUZB0mA5exnXplez8qFCWntj0EhZstN3jxWy6BD3YdA004zppWBQkHbq4cuchjObRiRfP0rUgl+423eXYh/5Ee/9aFE3LX1iU/ppxUR2sCpIOXZSyWBG6a7xn6Y679EbHexcvX7Gho93Epsug93vshj67FDHCkiDp0CWLWZIjpE365cTDU8ynjytewg1FJeyPsvTiFS/RpUu3wzCouOBWI1gQJB26uJjXZwNJt+EJTEU9XkSZqUbPa9kt0ZE7b6PXUMjA49JhRZB06CLvbWKuTMaMe+zAGIPzynRduhjadGsOo/cely4hx6XD2iDp0CW9xmjYESA16NJwLTTMhUuNlb2kYXrWwlEv7f7DpGvsxS5k6bAoSDp06Yn59n2ksZolBufRm8vBX5MwPa1FTDy6hlmXmKDcpuIatCENAWBBkHToYl0WDcUuWogeXLNJlx5n+aYva1Tcwr8k226/kJy/dmkIAEuCpEOX3JV7tK4FlaRrIIYuvbgRD7MdWXqJ3t4rXi6JSQ+63qC5LiwJkg5dLofIMnRvDCDcece5VHpEnsaX14f11q0T7/ZClg7rgqRDl/89xPUAfiRUSbg2o02/HeJ/Kvf6NNosLIZNKl5gLZB0SCX9q77qX3hspX0pl3QJcrpr2G0YWj8s6fcm3HVQZVwL9RX//ZtfAEuBpEMXCbqhNSMGJeX1liDb8U4vY9H3sy6519vtMf/cpOaNuxZw6fAZIOnQ4xkl/Guo6/pSFPTsDlAtadtScG3b/lGX/jLl8ufBpd/Dg0uHFUHSoUuUbctYPHupmP72F4qWrIxFxOWwfTuElLtxfym5trSJS4cFQdKhS8jMdyP5DslLdltFmqEX24jpzO1Q8hLDFul3EPS7NnHpsB5IOnSxkOXr9dceDTUOWXjZdX6/2OPu3VL1o8FLCNM9fWmijkuHdUHSoUsQbLPqWorj/MSnHinztt7ru1HXm+2uaBCnjuQ8hC1B6V8TsnRYEiQdunQkPFV2rUp7Vdli6m6i7Wm6j+JA6v3QoDPVo7p0C1yCrCthp+IFVgRJhx7PELl0fyjVhlaDSIuiR1jOImxV6KjRPDLnEnGPXdqQLB2WBEmHLsrIm2Trb8D28aJx/0Tr6pIE7XLe7cNiGKF1abXsuH4TNVG/49JhPZB06PGMch4JHj1UNpoAj2y65r6jv245jIRa783c5RaCFb3qX1zBpcOqIOnQJci3pS1xU1xnbLqmW7pvsbwEfQJz6amoq5gRSYfFQNKhS5BvQ1tB6Sdceh6lu/L7hkUtNhVabdrtgk6WDh8Dkg576tKl3m/K0i1j0U79l/dpbEWMM8mLXLqJunLzGLHXNy4dlgNJh7whgJtyO2EUtxNDPlqToBsl2ytHgxeZcok7Lh0+CSQduvSCc5f5+JWvIy5dmp02aPRu6tLz4NN9qsWHuXRrAuBZOhUvsBpIOvR4JsG5VvQhJrJ0WyuexGgrsl3xUrHgxX4ctfwl7hG8wHog6dAlqrlnLEKL8xUvbtK1lkbppdWlT6Og3IsWvewFlw4rgqRDj+dW6mJFjdMVL7lJL1HjS3p69JEmL49e9pKXMPoyWTqsCZIOXbomXCL+ptOjuUsf/0eSbgteNLfoJfTr0st7vMi4c500LAaSDl3MhOcefbbiJbfpWhv/V8U9uAY5uaB7JEMnRliTKun/+tcvAHPp42aMvnvMpbtN3/6vYsQi8uRFd4/mou7LSDqsRpX0B5IOFdE/IxrH2myjySzdXbpG4//INNxVPEYv7tL9hUuHD6BKOsA/iRJuQ91sdLTHi4m4VrWV/TfBofvoMdHjJRV1+qXDiiDp0ONpCm6l6bY3VfGSHxDN7yrVruUrqUHX1Dox+guXDsuDpEMXyXV75dWLxyteSuLSDatLHyUvD695waXDTwFJh7wuvZKXL7YVbU5WvLhNH18xLZS75LjotyCdLB0+GCpeoEvv/L+nMO9x6fM2XVLdDWAeWhHW48VSF1w6rA8VL9DjadUs7dMLX+b7pR936d4vXdiaib7KXXDp8Klw1AgSl54FLF74crzipcyb9EredTHOHxMu3ZY5PQoLgqRDj6fpuJBZN2Wfd+lHTLpOj9qdF1q3ehf1eKHiBT4XJB269MrRvzKDPt8vXc+hihe34LlP16wZbype4INB0qHHM7noQosaanOm4mXepouS3XfxsKnXpXN6FD4ZJB26JD7cmgCErYMufT5M91uM2sDnWlMnRipe4GNB0qFLfom0pkrb1barTNj0SZeu3SKlNpJ6F3q8wM8ASYddFS96NHeuR2z68YqX5BdRLQTUiZGKF/hYkHTo8XThdjxNvx4J03ebdO1asKKZ63msS79T8QKfDJIOe4KXNv3SXFIeKl7KlEnXc7wu3YnGnU6M8JNA0qHHM2sE4BMPXuZN+vzpUfHoB+d5XfqdLB0+FyQd8oqXbjG6VtytS4GnXPq0TQ8ni+p7+wipXDoVL/C5IOnQxR26BDwvf7kes+lluuLF8RA9zh50YoSfAJIOXfKei3LvLvOplG/p9fEsXQqel6Y/6PECPwUkHXo8R5de5Dp/bUweH52ueAmCrXGWozdU7kLFC3wqSDp0kQ0XWfCie0ibBJfp06PH69JtmKYxculUvMDHgqTD2KVbCwANXfFnTLo2y1sqXpTE6IMeL/DTQNKhS1Bya9nlHK94mbTpdRIUWxMx6sRIxQt8MEg6dJGgR2PuV45qNlfxor3DnRgfHY+etmjEpcNPAEmHLiFx2eR4xUtb8S8P/xvLy22edmKkxwt8NEg6dPFQJdrynkefdekqd5ky6X73aDx55Ov0eIEfA5IOXaTjZtVtqsXpLF1MuvRHlqE/bN06MdLjBT4XJB1GnRhF5tG1N1vxoq1U3LXlLn2eJtpux+sfWTp8Akg6dLHS84jv1pekeL9Lfxzgvw/xq/L89Xw+//2uo/pq61rRC5MOi4GkQ4+n+/A298OkYv70aPlWSQf4eJB06OJmXJ9CIh+y9M3jo1pG0gGQdPgGl/5ldlx6bjl6e1/FLpdekHQAJB3+gEvvXDvqAyl32WnSC5IOgKTDb+bpdtzzF9+dM+kFlw6ApMP3uPSvkK20R2ii7SRLz126svSbXhp0Xkg6AJIOh12649m6MOneOFzEz6MASDp8A27ONdM0LHhdugZdm04RIwCSDt/Bs5esCM2i1rtJL/YIihgBkHT4FvJLjLx4UdjpUTE6PXpD0gGQdPi9/dLze6O1qbfVpZdEw/PTo7f6imN/IekASDpMkpel25JIKl7O1eMF4JNB0qFL7JDuqq5FnTDtVryQpQM0kHT4Y5gd76l6e8TVbPpWmK66dHFD0gGQdHgjz+C/pd9G3DTxrm9cOsB/QNLhjxEE2yKWLFqP4i1Rz016CZJ+C0N/IekASDocQNKdevQv37yK3XdFP/ZDxQsAkg5HSPMVfXi6bi5dx43GFS83ghcAJB1+e4+XLz0bqOJFKHzZc6vRTSMkHQBJh98RvIxqXcLMXbpUfeJWoxsuHQBJh2/oxCgJF3HmJl3v6VuN/NdRJB0ASYcjVK3Ogxdta7pR8VJG/dKdGy4dAEmHNzEqQrduL17xkup5oFDxAoCkg/i+hgBy61owNlx66fVLV65CxQsAkg6/BbfmHaLof42zdK1FHoEbFS8ASDq8myjXX3521MXdXXrvbV8Zpix6IekASDq8q+LF+bJWje7S/e1p+lSQjqQDIOkwj8Q6uQhDTFS8ZHXpzo3gBQBJhzfxlHZroLF59M2Kl8Sjl9Bc98bPowBIOvwG3JE3s66xk/d40VtPY+zPfeOGpAMg6TDFs5Oa672n4sUFXUjcd58exaUDIOlwmODLhcm8hN1cuqt68VuPuAID4P/au4MVxYEoDKNDbwIls/L933WGJvgTrpU2GoW5c05ra4Lrj6KssiSdt7s37/I1OXg0liPbR7OIcfhBAJB03mg+Hk/syzj9pRUvIyEfFjGCpHOitPyx/aPP/sbLxcQLSDrvlmSXE+nyUsqeQfidqteDpe0eBUnnE9LxHSXtS1zqMD3yCV+PgqTzdmX9Yt6UcXreZxg+PVI6j9WxU+qGpIOkc9Tkdxh/ONUopb5/onTk5rbXsyunGoGk87SywSjXuVrv5O223ol6Lh+cSx8mXkDSOcs17Z5vMqoj92U2SF+fR+fS7R4FSecE5UCjEvjczJ3JVHqel/qJ72L7ehQknfeZj87ns+vzFS9RP7A36TIkHSSd120Xt0Su84ncXkP9wDA9Sr+nhhUvIOk8owzG81LG5pGQ/zSZnrZvq+0IDJB0Tret+Vde8r+0PaP0uyteJsP033vsHgVJ58xTjebqKUf3ptJzbfcoSDoRn989musyyR5rp+u69Mv+uvQxH51LOkg6r0qxN0GvdzIxM13xkrxHbt0CHsMoHSSdEyXdGafvyCj9wPbReqrRsOIFJJ3zJeixmXrJS27XUXr+JfT1VKN9do+CpPOa8jOLt0eVm8v05NH5kpdSb1+PgqRz/oqX45ajrHgBSecjruvf+ri9u66P7+c19/7+AXOSDoCkA/yPJB2gDUkHaEPSAdqQdIA2JB2gDUkHaEPSAdqQdIA2JB2gDUkHaEPSAdqQdIA2JB2gDUkHaEPSAdqQdIA2JB2gDUkHaEPSAdqQdIA2JB2gDUkHaEPSAdqQdIA2JB2gDUkHaEPSAdqQdIA2JB2gDUkHaEPSAdqQdIA2JB2gDUkHaEPSAdqQdIA2JB2gDUkHaEPSAdqQdIA2JB2gDUkHaEPSAdqQdIA2JB2gje+kj/ELgH/eGJIO0MQYy/IH36z2AYbH6Q4AAAAASUVORK5CYII=;sketch=0;imageBackground=none;" vertex="1" parent="1">
          <mxGeometry x="1310" y="-13.129999999999997" width="261.76" height="260" as="geometry" />
        </mxCell>
      </root>
    </mxGraphModel>
  </diagram>
</mxfile>
